<?xml version="1.0" encoding="UTF-8"?>
<svg id="_レイヤー_1" data-name="レイヤー 1" xmlns="http://www.w3.org/2000/svg" viewBox="0 0 129.7 70.3">
  <defs>
    <style>
      .cls-1 {
        stroke-width: 2px;
      }

      .cls-1, .cls-2, .cls-3, .cls-4 {
        fill: none;
        stroke: #fff;
      }

      .cls-1, .cls-2, .cls-4 {
        stroke-linejoin: round;
      }

      .cls-5 {
        fill: #231815;
      }

      .cls-5, .cls-6 {
        stroke-width: 0px;
      }

      .cls-2 {
        stroke-width: 1.5px;
      }

      .cls-3 {
        stroke-miterlimit: 10;
        stroke-width: .75px;
      }

      .cls-6 {
        fill: #040000;
      }
    </style>
  </defs>
  <g>
    <g>
      <path class="cls-1" d="m17.45,25.57c0,.69.09,1.11.26,1.27s.64.23,1.41.23v.56h-6.19v-.56c.77,0,1.23-.08,1.41-.23s.26-.58.26-1.27v-6.38c-1.2,0-2.15-.02-2.85-.06s-1.35-.14-1.96-.32-1.05-.37-1.31-.6-.5-.61-.7-1.14-.32-1.1-.36-1.7-.06-1.43-.06-2.47c0-.69-.09-1.11-.26-1.28s-.64-.25-1.41-.25v-.56h6.16v.56c-.75,0-1.21.08-1.38.23s-.26.59-.26,1.29c0,.95.01,1.7.04,2.23s.09,1.04.21,1.52.26.83.42,1.04.43.4.79.56.75.26,1.18.29,1.01.05,1.75.05v-5.7c0-.69-.09-1.11-.26-1.28s-.64-.25-1.41-.25v-.56h6.19v.56c-.77,0-1.23.08-1.41.25s-.26.59-.26,1.28v12.66Z"/>
      <path class="cls-1" d="m28.65,16.21l-3.98,1.85v2.7l2.53-1.17.96,1.38-3.49,1.64v2.86c0,.5.17.75.52.75.11,0,.19-.02.23-.05l2.37-1.15,1.52,1.17-3.28,1.52c-.38.17-.77.26-1.17.26-.7,0-1.31-.23-1.82-.7s-.76-1.12-.76-1.97v-6.94c0-.7.3-1.18.89-1.43l3.42-1.59,2.06.87Z"/>
      <path class="cls-1" d="m35.63,28.1c.22,1.09.33,2.07.33,2.93,0,.45-.09.88-.27,1.29s-.4.74-.67,1.01-.52.5-.77.7-.47.35-.66.45l-.28.14-.68-.96c.06-.05.14-.12.23-.22s.22-.33.38-.69.23-.74.23-1.15c0-1.44-.27-3.06-.8-4.88s-.8-3.49-.8-5.04c0-.59.17-1.27.5-2.03s.93-1.55,1.77-2.39,1.85-1.46,3.02-1.86c1.36.59,2.53,1.54,3.5,2.85s1.46,2.45,1.46,3.43c0,.83-.28,1.73-.83,2.7s-1.35,1.83-2.39,2.58-2.14,1.13-3.29,1.15Zm-.26-1.03c2.84-.12,4.27-1.47,4.27-4.03,0-.67-.15-1.34-.45-2s-.62-1.21-.97-1.65-.75-.91-1.2-1.43-.75-.91-.9-1.17c-.73.48-1.22.96-1.46,1.44s-.36,1.14-.36,1.98c0,.47.02.94.06,1.41s.08.87.12,1.21.11.74.2,1.21.16.81.21,1.02.13.57.26,1.08.2.82.23.95Z"/>
      <path class="cls-1" d="m51.27,16.21l-3.98,1.85v2.7l2.53-1.17.96,1.38-3.49,1.64v2.86c0,.5.17.75.52.75.11,0,.19-.02.23-.05l2.37-1.15,1.52,1.17-3.28,1.52c-.38.17-.77.26-1.17.26-.7,0-1.31-.23-1.82-.7s-.76-1.12-.76-1.97v-6.94c0-.7.3-1.18.89-1.43l3.42-1.59,2.06.87Z"/>
      <path class="cls-1" d="m60.08,21.82c-.62,0-1.14.06-1.56.18s-.67.18-.76.18-.26-.1-.49-.29-.35-.34-.35-.43.11-.23.34-.4.41-.26.55-.26c.05,0,.13.03.26.08s.33.11.62.16.65.08,1.09.08c.77,0,1.34-.28,1.71-.83s.56-1.21.56-1.98-.18-1.39-.53-1.79-.83-.6-1.44-.6c-.72,0-1.23.24-1.55.73s-.47,1.3-.47,2.46c0,.19-.39.28-1.17.28-.83,0-1.24-.09-1.24-.28,0-1.02.37-1.89,1.1-2.64s1.84-1.11,3.33-1.11c2.91,0,4.36,1.1,4.36,3.3,0,.62-.18,1.2-.55,1.72s-.89.89-1.56,1.09c1.92.56,2.88,1.6,2.88,3.12,0,2.19-1.4,3.28-4.2,3.28-.7,0-1.35-.16-1.93-.48s-1.03-.48-1.32-.48c-.14,0-.41.2-.8.6s-.68.6-.87.6c-.31,0-.64-.14-1-.42s-.53-.59-.53-.94c0-.2.19-.46.56-.76s.72-.46,1.03-.46c.58,0,1.09.09,1.55.27s.8.38,1.05.61.58.43,1,.61.88.27,1.39.27c.47,0,.86-.24,1.17-.71s.47-1.15.47-2.03-.2-1.53-.61-2-1.11-.71-2.11-.71Z"/>
      <path class="cls-1" d="m80.42,26.71c-.13.48-.4.81-.81.96-.41.16-1.27.23-2.57.23-.22,0-.33-.09-.33-.28,0-.31.05-.82.14-1.52s.2-1.05.33-1.05h1.99c.5,0,.83-.04.98-.11.16-.07.27-.25.33-.53l.38-1.48-4.76-10.03c-.31-.64-.61-1.05-.9-1.24s-.81-.28-1.56-.28v-.56h6.16v.56c-.81,0-1.22.15-1.22.45,0,.17.12.53.38,1.08l2.91,6.11,1.97-7.65c.03-.14.09-.24.18-.31s.34-.12.76-.17c.42-.05,1.05-.07,1.9-.07.22,0,.33.09.33.28,0,.31-.05.82-.14,1.52s-.2,1.05-.33,1.05h-1.52c-.47,0-.79.05-.95.14-.17.09-.28.27-.35.52l-3.31,12.37Z"/>
      <path class="cls-1" d="m93.31,28.1c.22,1.09.33,2.07.33,2.93,0,.45-.09.88-.27,1.29s-.4.74-.67,1.01-.52.5-.77.7-.47.35-.66.45l-.28.14-.68-.96c.06-.05.14-.12.23-.22s.22-.33.38-.69.23-.74.23-1.15c0-1.44-.27-3.06-.8-4.88s-.8-3.49-.8-5.04c0-.59.17-1.27.5-2.03s.93-1.55,1.77-2.39,1.85-1.46,3.02-1.86c1.36.59,2.53,1.54,3.5,2.85s1.46,2.45,1.46,3.43c0,.83-.28,1.73-.83,2.7s-1.35,1.83-2.39,2.58-2.14,1.13-3.29,1.15Zm-.26-1.03c2.84-.12,4.27-1.47,4.27-4.03,0-.67-.15-1.34-.45-2s-.62-1.21-.97-1.65-.75-.91-1.2-1.43-.75-.91-.9-1.17c-.73.48-1.22.96-1.46,1.44s-.36,1.14-.36,1.98c0,.47.02.94.06,1.41s.08.87.12,1.21.11.74.2,1.21.16.81.21,1.02.13.57.26,1.08.2.82.23.95Z"/>
      <path class="cls-1" d="m108.8,16.03l2.07,11.6h-2.43l-.26-1.45c-.94,1.13-2.17,1.69-3.68,1.69-.9,0-1.54-.27-1.92-.82s-.58-1.16-.58-1.85c0-2.01,1.58-4.35,4.75-7l-.46-2.56h1.94c.32,0,.51.13.56.4Zm-.8,9.13l-1.13-6.35c-1.74,1.45-2.61,2.99-2.61,4.62,0,.61.16,1.2.47,1.77.31.57.79.86,1.44.86.78,0,1.4-.3,1.84-.9Z"/>
      <path class="cls-1" d="m120.42,16.03l2.07,11.6h-2.43l-1.59-8.88c-1.92,2.39-2.88,5.08-2.88,8.06,0,.38,0,.65.02.82h-2.55c.06-1.89.41-3.45,1.04-4.68.63-1.23,2.03-2.96,4.19-5.17l-.38-2.15h1.94c.32,0,.51.13.56.4Z"/>
    </g>
    <g>
      <path class="cls-5" d="m17.45,25.57c0,.69.09,1.11.26,1.27s.64.23,1.41.23v.56h-6.19v-.56c.77,0,1.23-.08,1.41-.23s.26-.58.26-1.27v-6.38c-1.2,0-2.15-.02-2.85-.06s-1.35-.14-1.96-.32-1.05-.37-1.31-.6-.5-.61-.7-1.14-.32-1.1-.36-1.7-.06-1.43-.06-2.47c0-.69-.09-1.11-.26-1.28s-.64-.25-1.41-.25v-.56h6.16v.56c-.75,0-1.21.08-1.38.23s-.26.59-.26,1.29c0,.95.01,1.7.04,2.23s.09,1.04.21,1.52.26.83.42,1.04.43.4.79.56.75.26,1.18.29,1.01.05,1.75.05v-5.7c0-.69-.09-1.11-.26-1.28s-.64-.25-1.41-.25v-.56h6.19v.56c-.77,0-1.23.08-1.41.25s-.26.59-.26,1.28v12.66Z"/>
      <path class="cls-5" d="m28.65,16.21l-3.98,1.85v2.7l2.53-1.17.96,1.38-3.49,1.64v2.86c0,.5.17.75.52.75.11,0,.19-.02.23-.05l2.37-1.15,1.52,1.17-3.28,1.52c-.38.17-.77.26-1.17.26-.7,0-1.31-.23-1.82-.7s-.76-1.12-.76-1.97v-6.94c0-.7.3-1.18.89-1.43l3.42-1.59,2.06.87Z"/>
      <path class="cls-5" d="m35.63,28.1c.22,1.09.33,2.07.33,2.93,0,.45-.09.88-.27,1.29s-.4.74-.67,1.01-.52.5-.77.7-.47.35-.66.45l-.28.14-.68-.96c.06-.05.14-.12.23-.22s.22-.33.38-.69.23-.74.23-1.15c0-1.44-.27-3.06-.8-4.88s-.8-3.49-.8-5.04c0-.59.17-1.27.5-2.03s.93-1.55,1.77-2.39,1.85-1.46,3.02-1.86c1.36.59,2.53,1.54,3.5,2.85s1.46,2.45,1.46,3.43c0,.83-.28,1.73-.83,2.7s-1.35,1.83-2.39,2.58-2.14,1.13-3.29,1.15Zm-.26-1.03c2.84-.12,4.27-1.47,4.27-4.03,0-.67-.15-1.34-.45-2s-.62-1.21-.97-1.65-.75-.91-1.2-1.43-.75-.91-.9-1.17c-.73.48-1.22.96-1.46,1.44s-.36,1.14-.36,1.98c0,.47.02.94.06,1.41s.08.87.12,1.21.11.74.2,1.21.16.81.21,1.02.13.57.26,1.08.2.82.23.95Z"/>
      <path class="cls-5" d="m51.27,16.21l-3.98,1.85v2.7l2.53-1.17.96,1.38-3.49,1.64v2.86c0,.5.17.75.52.75.11,0,.19-.02.23-.05l2.37-1.15,1.52,1.17-3.28,1.52c-.38.17-.77.26-1.17.26-.7,0-1.31-.23-1.82-.7s-.76-1.12-.76-1.97v-6.94c0-.7.3-1.18.89-1.43l3.42-1.59,2.06.87Z"/>
      <path class="cls-5" d="m60.08,21.82c-.62,0-1.14.06-1.56.18s-.67.18-.76.18-.26-.1-.49-.29-.35-.34-.35-.43.11-.23.34-.4.41-.26.55-.26c.05,0,.13.03.26.08s.33.11.62.16.65.08,1.09.08c.77,0,1.34-.28,1.71-.83s.56-1.21.56-1.98-.18-1.39-.53-1.79-.83-.6-1.44-.6c-.72,0-1.23.24-1.55.73s-.47,1.3-.47,2.46c0,.19-.39.28-1.17.28-.83,0-1.24-.09-1.24-.28,0-1.02.37-1.89,1.1-2.64s1.84-1.11,3.33-1.11c2.91,0,4.36,1.1,4.36,3.3,0,.62-.18,1.2-.55,1.72s-.89.89-1.56,1.09c1.92.56,2.88,1.6,2.88,3.12,0,2.19-1.4,3.28-4.2,3.28-.7,0-1.35-.16-1.93-.48s-1.03-.48-1.32-.48c-.14,0-.41.2-.8.6s-.68.6-.87.6c-.31,0-.64-.14-1-.42s-.53-.59-.53-.94c0-.2.19-.46.56-.76s.72-.46,1.03-.46c.58,0,1.09.09,1.55.27s.8.38,1.05.61.58.43,1,.61.88.27,1.39.27c.47,0,.86-.24,1.17-.71s.47-1.15.47-2.03-.2-1.53-.61-2-1.11-.71-2.11-.71Z"/>
      <path class="cls-5" d="m80.42,26.71c-.13.48-.4.81-.81.96-.41.16-1.27.23-2.57.23-.22,0-.33-.09-.33-.28,0-.31.05-.82.14-1.52s.2-1.05.33-1.05h1.99c.5,0,.83-.04.98-.11.16-.07.27-.25.33-.53l.38-1.48-4.76-10.03c-.31-.64-.61-1.05-.9-1.24s-.81-.28-1.56-.28v-.56h6.16v.56c-.81,0-1.22.15-1.22.45,0,.17.12.53.38,1.08l2.91,6.11,1.97-7.65c.03-.14.09-.24.18-.31s.34-.12.76-.17c.42-.05,1.05-.07,1.9-.07.22,0,.33.09.33.28,0,.31-.05.82-.14,1.52s-.2,1.05-.33,1.05h-1.52c-.47,0-.79.05-.95.14-.17.09-.28.27-.35.52l-3.31,12.37Z"/>
      <path class="cls-5" d="m93.31,28.1c.22,1.09.33,2.07.33,2.93,0,.45-.09.88-.27,1.29s-.4.74-.67,1.01-.52.5-.77.7-.47.35-.66.45l-.28.14-.68-.96c.06-.05.14-.12.23-.22s.22-.33.38-.69.23-.74.23-1.15c0-1.44-.27-3.06-.8-4.88s-.8-3.49-.8-5.04c0-.59.17-1.27.5-2.03s.93-1.55,1.77-2.39,1.85-1.46,3.02-1.86c1.36.59,2.53,1.54,3.5,2.85s1.46,2.45,1.46,3.43c0,.83-.28,1.73-.83,2.7s-1.35,1.83-2.39,2.58-2.14,1.13-3.29,1.15Zm-.26-1.03c2.84-.12,4.27-1.47,4.27-4.03,0-.67-.15-1.34-.45-2s-.62-1.21-.97-1.65-.75-.91-1.2-1.43-.75-.91-.9-1.17c-.73.48-1.22.96-1.46,1.44s-.36,1.14-.36,1.98c0,.47.02.94.06,1.41s.08.87.12,1.21.11.74.2,1.21.16.81.21,1.02.13.57.26,1.08.2.82.23.95Z"/>
      <path class="cls-5" d="m108.8,16.03l2.07,11.6h-2.43l-.26-1.45c-.94,1.13-2.17,1.69-3.68,1.69-.9,0-1.54-.27-1.92-.82s-.58-1.16-.58-1.85c0-2.01,1.58-4.35,4.75-7l-.46-2.56h1.94c.32,0,.51.13.56.4Zm-.8,9.13l-1.13-6.35c-1.74,1.45-2.61,2.99-2.61,4.62,0,.61.16,1.2.47,1.77.31.57.79.86,1.44.86.78,0,1.4-.3,1.84-.9Z"/>
      <path class="cls-5" d="m120.42,16.03l2.07,11.6h-2.43l-1.59-8.88c-1.92,2.39-2.88,5.08-2.88,8.06,0,.38,0,.65.02.82h-2.55c.06-1.89.41-3.45,1.04-4.68.63-1.23,2.03-2.96,4.19-5.17l-.38-2.15h1.94c.32,0,.51.13.56.4Z"/>
    </g>
  </g>
  <g>
    <g>
      <path class="cls-2" d="m17.76,40.66c.46-.21.95-.33,1.48-.38.79-.08,1.48.15,2.07.69.07.06.1.12.1.18,0,.09-.03.16-.09.21l-.38.37c-.17.45-.23.97-.19,1.55l2.21-.29.35-.53c.1-.14.22-.17.38-.1.8.4,1.52.86,2.15,1.38.05.05.07.1.07.16,0,.07-.02.12-.07.15l-.45.44c-.45,1.61-1.15,3.1-2.09,4.47-.87,1.23-1.92,2.25-3.16,3.06s-2.44,1.34-3.63,1.58c1.8-1.17,3.41-2.71,4.85-4.63.91-1.42,1.41-3,1.49-4.76-2.22.06-4.39.41-6.52,1.05l-.03,1.73v1.96c-.04.26-.2.45-.47.56-.26.11-.5.08-.7-.09l-.85-.64c-.08-.12-.09-.24-.04-.38.3-1.28.26-2.55-.12-3.82-.1-.35-.3-.63-.62-.85l-.28-.18c.09-.14.25-.21.48-.22.16,0,.29.02.41.06l1.27.41c.3.1.61.13.91.09l2.33-.25-.15-2.29c0-.21-.09-.34-.28-.41l-.45-.13s-.03-.03-.03-.06,0-.05.03-.07Z"/>
      <path class="cls-2" d="m28.51,46.1c.7.15,1.51.15,2.42.01,2.17-.55,4.35-.92,6.55-1.11.3,0,.59-.12.86-.32l.26-.22c.2-.15.39-.16.59-.04.57.4,1.08.89,1.55,1.46.04.05.05.1.04.16s-.03.11-.07.16l-.4.25c-.4,1.16-.98,2.2-1.73,3.11s-1.66,1.67-2.71,2.28c-1.75,1.05-3.52,1.67-5.3,1.83,1.54-.43,2.97-1.31,4.28-2.64s2.28-2.96,2.92-4.87c-2.51.23-4.84.83-6.99,1.77-.21.13-.42.12-.62-.03-.75-.53-1.3-1.13-1.66-1.8Zm1.35-3.53c.74.07,1.59.03,2.55-.1,1.53-.24,3.12-.62,4.75-1.14.21-.05.4-.04.56.03.46.21.88.46,1.26.73.15.12.19.26.12.44-.07.17-.2.25-.38.25-2.2.11-4.33.48-6.4,1.13-.19.04-.39.02-.6-.06-.8-.37-1.42-.8-1.85-1.27Z"/>
      <path class="cls-2" d="m45.05,43.36c.32-.33.77-.45,1.35-.35.7.1,1.26.43,1.68,1.01.09.12.12.25.09.4s-.13.27-.29.38c.06,1.85-.28,3.56-1.03,5.16-.45.82-1.04,1.51-1.76,2.07s-1.4.93-2.02,1.11c.96-1.01,1.69-2.29,2.19-3.85s.66-3.18.46-4.85c-.03-.32-.17-.61-.42-.85l-.25-.22Zm3.24-1.85c.36-.25.81-.35,1.35-.29.8.15,1.46.52,1.99,1.11.17.16.18.33.04.51-.14.18-.22.37-.25.59l-.34,5.68c2.4-1.21,4.1-2.85,5.08-4.91-.21,1.32-.71,2.64-1.52,3.96s-1.84,2.46-3.09,3.41c-.18.18-.26.38-.26.62,0,.02-.01.04-.04.06-.04.02-.07.02-.1,0-.86-.51-1.61-1.09-2.24-1.74-.05-.07-.05-.14,0-.22.24-.49.34-.98.28-1.48l-.18-6.11c-.02-.36-.15-.67-.38-.92l-.34-.26Z"/>
      <path class="cls-2" d="m62.33,40.87c.37-.33.95-.37,1.73-.1.44.15.76.42.95.82.04.14,0,.24-.09.31-.21.14-.37.32-.45.56l-.29.81,1.35-.72c.5-.12.91.02,1.25.41.09.1.13.21.13.35s-.04.25-.13.35c-1,.78-2.16,1.23-3.49,1.35l-.53,1.39c.86-.63,1.65-.79,2.36-.45.57.27.93.76,1.08,1.46l2.21-1c.21-.12.28-.3.22-.54l-.06-.15c-.03-.08-.02-.14.03-.19.04-.04.1-.05.18-.03.86.23,1.46.75,1.82,1.55.14.39.06.75-.22,1.08-.22.24-.51.31-.85.19-1.04-.3-2.12-.3-3.22.01l.07,1.86c-.04.17-.1.33-.19.48-.37.34-.79.49-1.26.44-.22-.03-.4-.12-.53-.28s-.19-.34-.17-.56l.15-1.35c-.59.14-1.03.41-1.32.81-.16.25-.23.53-.23.83s.09.57.28.81c.44.47.98.72,1.63.75,1.06-.03,2.1-.21,3.11-.53.28-.04.55,0,.81.14s.46.32.62.56c.09.15.11.3.07.45-.04.15-.13.26-.28.34-1.39.7-2.85.92-4.39.64-.91-.13-1.76-.45-2.55-.97-.28-.17-.5-.4-.66-.69s-.23-.61-.22-.94c.02-.57.2-1.07.54-1.52.68-.77,1.56-1.31,2.62-1.61l-.1-.89c-.02-.19-.1-.34-.25-.47s-.32-.19-.51-.19c-.47.06-.82.27-1.04.63-.72,1-1.36,1.99-1.9,2.97-.14.21-.32.37-.56.45s-.48.08-.73-.01c-.45-.16-.74-.46-.88-.92-.05-.28.03-.52.25-.72,1.34-.95,2.37-2.21,3.11-3.79-.65.06-1.2-.07-1.65-.38s-.72-.64-.81-1c.91.35,1.93.35,3.06,0,.2-.71.28-1.41.26-2.08,0-.2-.08-.36-.23-.5-.17-.14-.19-.22-.06-.25Z"/>
      <path class="cls-2" d="m72.94,42.79h2.26v-2.58l1.73.29c.1.04.17.1.21.18.02.06.02.15,0,.26l-.35.44v1.41h.23l.38-.62c.04-.08.11-.12.21-.12.1-.02.17,0,.21.09l.82.88c.08.08.1.17.06.26-.06.1-.14.16-.23.18h-1.67v1.7h.23l.38-.62c.06-.06.12-.09.18-.1s.12,0,.18.04l.91.85c.08.08.1.17.07.28s-.1.17-.22.19h-1.58c.14.1.18.23.12.41l-.26.67v.94h.12l.41-.7c.04-.06.11-.09.21-.09.04,0,.1.03.18.09l.82.85c.06.08.07.18.03.29-.04.08-.12.13-.23.15h-1.52v3.22c3.4.43,6.76.35,10.08-.23-.84.53-1.45,1.25-1.82,2.17-2.64.25-5.22.08-7.76-.53-.62-.18-1.19-.47-1.68-.88s-.88-.91-1.16-1.49c-.43,1.15-1.13,2.14-2.11,2.96.84-2.29,1.16-4.62.97-7l1.9.44v-1.26h-2.55l-.21-.64h2.75v-1.7h-2.02l-.23-.67Zm2.26,4.75l-.29.23c.04.74-.05,1.49-.26,2.26.12.27.3.53.56.76v-3.25Zm3.75-5.42l1.58.79h.82l-.12-2.7,1.88.47c.39-.06.76.01,1.1.22s.57.49.69.86c.06.21.05.4-.03.56l.88.67c.1.12.13.22.09.32-.06.12-.15.18-.26.18h-2.67c.04.84.17,1.75.38,2.72.27-.68.45-1.34.53-1.96l1.46.64c.1.06.16.16.18.29.02.12-.02.22-.12.32l-.29.21c-.21.84-.6,1.62-1.14,2.34.08.21.17.43.26.64.06.1.15.15.26.15s.21-.04.26-.12l1.29-1.82-.47,1.82c-.12.49-.12.99,0,1.49.08.31-.01.57-.28.78s-.54.22-.83.04c-.7-.43-1.26-1.01-1.67-1.73-.88.72-1.85,1.23-2.9,1.52.96-.72,1.77-1.59,2.43-2.61-.51-1.5-.8-3.09-.88-4.75h-.82v4.98c.43-.08.91-.18,1.44-.29-1,.84-2.05,1.59-3.16,2.26l-.09.12c-.1.08-.2.11-.29.09s-.17-.08-.21-.18l-.62-1.52c.35-.02.79-.07,1.32-.15v-6.68Zm4.89.79l.23-.21c-.29-.02-.46-.18-.5-.47-.12-.37-.29-.71-.53-1.03-.1.53-.15,1.09-.15,1.7h.94Z"/>
      <path class="cls-2" d="m90.99,44.82s.02.09.01.29c-.02.27.09.48.34.63.24.12.47.1.69-.04l2.87-1.6c.45-.25.93-.33,1.44-.22s.92.36,1.25.76c.13.2.18.42.15.67s-.12.46-.28.63c-.84.7-1.69,1.51-2.56,2.43h.83c.25,0,.49.08.7.25s.33.37.36.62c.04.62,0,1.24-.13,1.88-.02.21.03.39.15.53.12.17.27.25.45.26.87.04,1.69-.12,2.46-.47.31-.13.61-.09.89.1.26.18.39.42.37.73s-.15.55-.4.7c-1.44.52-2.9.62-4.39.32-.32-.09-.6-.25-.84-.48s-.4-.51-.48-.83c-.12-.8-.07-1.67.13-2.59-1.11.4-2.05.94-2.81,1.63s-1.36,1.5-1.79,2.42c-.14.27-.35.37-.63.29l-1.01-.37c-.26-.13-.42-.33-.47-.6-.05-.28.01-.53.19-.75l4.54-3.9c1.02-.91,1.92-2.06,2.72-3.46-1.28.71-2.33,1.53-3.15,2.46-.35.37-.78.56-1.3.56s-.94-.18-1.28-.53c-.21-.3-.28-.64-.23-1.01s.22-.66.51-.88l.7-.45Zm1.6-4.28c.48.37,1.11.56,1.89.56l1.85-.21c.45-.04.86.09,1.25.4.35.32.54.72.56,1.2,0,.16-.04.3-.14.43s-.23.21-.39.24l-1.16-.04c-1.34-.02-2.49.13-3.44.45.3-.32.9-.67,1.79-1.05-.77-.15-1.33-.42-1.67-.83s-.52-.79-.53-1.15Z"/>
      <path class="cls-2" d="m103.58,44.18l.88.16c.21.04.43,0,.66-.09,2.57-1.34,5.26-2.31,8.09-2.93.3-.15.61-.17.92-.07.7.33,1.22.85,1.55,1.55.05.16.03.3-.06.44-.09.13-.21.2-.37.22h-1.2c-.73.07-1.45.26-2.15.57-1,.4-1.66,1.1-1.99,2.09-.26.67-.38,1.36-.34,2.07s.23,1.38.59,2.03c.34.47.79.78,1.35.93s1.09.11,1.61-.12c.61-.03,1.07.22,1.39.75.15.23.19.49.13.77s-.2.5-.41.67c-1.07.38-2.17.42-3.3.12-.91-.21-1.65-.69-2.21-1.44s-.82-1.61-.75-2.57c.02-1.09.27-2.13.75-3.11s1.23-1.95,2.26-2.91c-2.02.68-3.65,1.7-4.88,3.06-.12.1-.25.12-.4.07-.56-.18-1.03-.48-1.41-.92s-.62-.88-.72-1.33Z"/>
      <path class="cls-2" d="m22.75,59.89v.53h-6.33v-.53h6.33Z"/>
      <path class="cls-2" d="m24.8,58.39c.79-.12,1.54.1,2.28.68.17.12.26.29.28.5.01.22-.06.4-.21.54-.16.12-.35.18-.56.17s-.39-.09-.53-.23c-.25-.23-.42-.52-.54-.87-.16-.44-.4-.7-.72-.79Zm.29,3.94c.49.11,1,.06,1.56-.12,2.34-1.17,4.24-2.72,5.7-4.63-1.11,2.44-2.88,4.42-5.33,5.94-.12.12-.22.25-.3.4-.03.05-.07.08-.11.09-.06.01-.12,0-.16-.03-.63-.46-1.08-1.01-1.35-1.64Zm1.17-5.65c.77-.23,1.57-.12,2.41.34.21.12.33.31.36.55.04.24-.04.45-.22.62-.13.12-.28.17-.45.17s-.32-.07-.44-.19c-.19-.21-.38-.45-.54-.73-.32-.47-.69-.73-1.12-.77Z"/>
      <path class="cls-2" d="m33.46,60.06l.62.02c.18-.01.33-.08.44-.21l1.56-1.86c.14-.11.31-.16.51-.14s.36.1.49.22c1.29,1.55,2.79,2.85,4.49,3.9.12.09.2.21.25.35s.04.29-.03.43c-.06.21-.18.34-.38.42s-.38.06-.55-.03c-1.56-1.17-2.88-2.57-3.94-4.2-.06-.1-.15-.15-.25-.15-.13,0-.22.06-.26.17l-1.19,2.39s-.06.08-.12.11-.11.03-.17,0c-.36-.13-.66-.33-.92-.59s-.44-.54-.54-.83Zm5.26-2.41c.19-.08.45-.07.78.02s.59.29.76.58c.12.25.09.47-.11.66-.08.08-.19.11-.32.09-.12-.01-.21-.07-.26-.18l-.18-.48c-.18-.39-.4-.62-.69-.69Zm1.09-.43c.48-.15.97-.03,1.48.37.11.09.17.21.18.36.01.14-.04.26-.15.37-.1.09-.22.11-.36.07-.14-.02-.24-.1-.3-.22l-.16-.34c-.2-.37-.43-.57-.69-.61Z"/>
      <path class="cls-2" d="m43.95,57.04c.21-.22.5-.33.86-.34s.67.11.91.36c.05.05.08.11.09.18s0,.13-.05.19c-.06.14-.11.29-.14.45-.11,1.09-.13,2.16-.07,3.22-.01.38-.18.66-.49.84-.19.06-.33.01-.43-.14l-.35-.48c-.06-.11-.08-.23-.05-.38.21-1.12.24-2.26.11-3.39-.02-.13-.07-.25-.17-.35l-.22-.15Zm3.42-.45c.21-.23.5-.35.88-.35.34.03.64.14.91.33.06.04.1.09.11.16s.01.14-.02.2l-.21.46c.02,1.24,0,2.41-.07,3.5-.04.84-.36,1.53-.98,2.07-.8.69-1.64,1.12-2.5,1.27.56-.29,1.07-.77,1.55-1.45.44-.62.67-1.29.7-2.04l-.03-3.67c-.06-.23-.17-.4-.34-.48Z"/>
      <path class="cls-2" d="m51.66,57.67l.04.02c.38.13.78.16,1.19.09,1.52-.32,3.1-.55,4.75-.69l.4-.32c.08-.05.16-.06.25,0,.62.3,1.08.77,1.36,1.39,0,.02,0,.04,0,.05-.01.02-.03.03-.05.03h-.2s-.3.09-.3.09l-2.44,1.25c-.04.16-.14.28-.32.33-.04.83-.28,1.59-.72,2.29-.82,1.11-1.83,1.78-3.02,2.01.68-.35,1.25-.92,1.71-1.73s.7-1.68.7-2.63c0-.25-.09-.47-.26-.66l-.28-.19s-.02-.02-.03-.04c0-.02,0-.03,0-.04l.16-.11c.07-.05.15-.06.23-.05.57.11,1.11.31,1.63.61.42-.47.78-1,1.07-1.57-1.46.11-2.82.41-4.1.91-.08.17-.2.25-.38.25-.37-.02-.69-.17-.96-.44s-.42-.55-.44-.84Z"/>
      <path class="cls-2" d="m64.4,57.86c.57,1,.72,2.03.43,3.08-.11.53-.34,1.01-.68,1.43s-.76.74-1.26.96c-.17.08-.34.09-.5.03-.3-.16-.47-.43-.51-.81-.32-.04-.58-.14-.78-.32s-.34-.4-.41-.67c-.12-.57-.04-1.11.24-1.63.3-.61.71-1.12,1.24-1.55s1.13-.71,1.79-.85c.98-.27,1.93-.18,2.84.27.44.21.81.5,1.12.86s.52.78.64,1.25c.13.52.13,1.02-.02,1.52s-.42.93-.81,1.29c-.49.45-1.04.77-1.67.97s-1.19.27-1.7.22c.57-.16,1.12-.49,1.64-1.01s.91-1.12,1.15-1.83c.12-.43.15-.86.07-1.28s-.25-.82-.54-1.18c-.28-.31-.61-.53-1-.67s-.82-.17-1.3-.1Zm-.62.16c-1.03.67-1.67,1.58-1.92,2.72-.13.52-.06,1,.2,1.47.08.09.18.14.3.16s.23-.02.32-.12c.54-.55.91-1.19,1.1-1.92s.19-1.5,0-2.31Z"/>
      <path class="cls-2" d="m69.44,57h3.32v-1.2l1.25.25c.08.01.14.06.18.14.02.08.01.16-.04.22l-.14.27v.31h2.06l.49-.58c.05-.07.11-.11.19-.11.09,0,.17.03.23.09l.65.58c.07.07.09.15.05.23s-.1.12-.19.12h-3.18l1.04.5s.06.08.05.14c-.02.06-.06.09-.12.09h-.11c-.28.36-.59.67-.91.92h1.71l.23-.33s.08-.08.15-.09.12,0,.17.03l.72.47c.06.05.09.11.11.19,0,.08-.02.15-.07.21l-.21.25v3.86c-.01.22-.08.41-.22.58s-.31.28-.52.33c-.07.04-.14.03-.21-.02-.07-.04-.12-.09-.14-.17,0-.09-.05-.17-.14-.24l-.81-.57c-.21.08-.44.1-.69.06-.11-.02-.16-.09-.18-.21v-.26h-1.11v.15c0,.09-.05.17-.14.24-.23.11-.47.16-.7.16-.05,0-.09-.02-.14-.06-.04-.05-.05-.1-.05-.15v-2.22c-.22.15-.49.29-.81.4v2.38c0,.09-.05.17-.14.24-.23.13-.48.18-.74.14-.12-.03-.18-.11-.18-.23v-5.59l1.04.45h.95c-.12-.11-.19-.25-.21-.4.01-.42-.04-.84-.16-1.25h-2.16l-.16-.33Zm1.76,2.39v1.85c.57-.48.87-1.1.88-1.85h-.88Zm.83-2.06c.27.08.5.22.68.42s.3.45.34.72c.01.21-.06.38-.23.51h1.04c.19-.54.28-1.1.28-1.65h-2.11Zm1.04,2.06c-.07.67-.37,1.23-.9,1.66l.88.38h1.11l.21-.26c.08-.11.18-.12.28-.05l.6.37c.11.09.12.18.05.29l-.14.18v1.32c0,.06-.02.12-.07.18l.56.02c.09,0,.16-.04.21-.11.06-.06.09-.13.09-.22v-2.44c-.19.16-.4.25-.63.26h-1.07c-.16,0-.3-.06-.4-.18s-.16-.24-.16-.39v-1.01h-.62Zm-.02,2.43v.92h1.11v-.92h-1.11Zm1.51-2.43v.51s.01.09.04.12.07.05.11.05h.42c.14-.01.24-.09.3-.24l.14-.4.37.71v-.76h-1.39Z"/>
      <path class="cls-2" d="m81.5,56.1l1.49.44s.08.04.11.1c.01.05,0,.1-.02.15l-.19.28c.05,1.34.43,2.56,1.14,3.68s1.67,1.98,2.87,2.58c-.67.04-1.24.3-1.71.78-.81-.76-1.43-1.64-1.87-2.63s-.67-2.04-.69-3.15c-.22,1.29-.71,2.45-1.47,3.48s-1.71,1.84-2.87,2.44c1.05-1.11,1.86-2.37,2.41-3.76s.82-2.85.81-4.38Z"/>
      <path class="cls-2" d="m88.88,56.45c.18-.11.42-.16.74-.16.43.06.8.25,1.09.56.03.04.04.08.04.14s-.02.1-.06.13c-.17.18-.25.44-.25.8.18-.21.34-.28.47-.21.21.11.39.25.54.41.07.1.06.19-.04.27-.39.45-.87.77-1.44.97-.38.86-.63,1.76-.76,2.71-.05.69-.15,1.34-.3,1.96-.01.09-.06.14-.15.15-.29.04-.5-.06-.65-.29-.19-.32-.23-.67-.12-1.03.44-1,.76-2.09.97-3.26-.33,0-.59-.1-.78-.29-.19-.18-.29-.36-.29-.55.18.12.4.13.68.03l.6-.26c.12-.48.17-.95.14-1.42,0-.17-.06-.32-.17-.44s-.19-.19-.25-.21Zm2.41,4.65c-.09.22-.09.52,0,.9.06.22.18.4.36.52s.39.17.61.15c.72-.02,1.41-.17,2.07-.47.26-.05.5,0,.73.15.17.09.26.22.28.4.02.2-.03.35-.16.45-.99.62-2.07.79-3.23.51-.28-.08-.52-.22-.7-.44s-.3-.47-.33-.76c-.05-.29-.02-.58.08-.85s.2-.46.29-.55Zm.53-2.17c.34-.39.86-.6,1.56-.63.33-.01.64.07.92.24s.5.41.64.7c.08.28.06.53-.06.77-.07.11-.17.18-.3.22s-.26.04-.38,0c-.53-.22-.99-.32-1.39-.28l.4-.18c.1-.06.16-.15.19-.25,0-.08,0-.16-.04-.24-.08-.13-.18-.23-.33-.28-.5-.16-.91-.18-1.22-.06Z"/>
      <path class="cls-2" d="m98.6,56.33c.16-.21.41-.3.75-.25.46.04.88.18,1.24.43.09.05.14.14.14.25s-.05.2-.15.27l-.13.1-.25.8,1.28-.62c.12-.07.24-.09.36-.06.28.08.53.23.74.45.06.08.08.16.07.26-.02.09-.07.17-.15.23-.85.53-1.8.87-2.84,1.01-.19.52-.41,1.05-.66,1.6.84-.49,1.67-.81,2.5-.96.67-.16,1.32-.08,1.92.25.28.18.49.42.62.72s.18.62.13.95c-.09.69-.44,1.2-1.04,1.54-1.52.79-3.07,1.04-4.63.76,1.34-.06,2.6-.56,3.76-1.49.43-.32.63-.75.62-1.27-.01-.32-.16-.58-.45-.77-.49-.26-.99-.28-1.51-.07-1.01.51-1.84,1.24-2.49,2.2-.03.06-.08.08-.15.08-.31.02-.6-.05-.88-.21-.23-.22-.35-.5-.33-.82,0-.07.02-.13.06-.19.54-.64.99-1.4,1.36-2.29-.42.03-.78-.06-1.08-.25s-.48-.41-.56-.64c.56.28,1.2.28,1.91.02.15-.48.25-.96.31-1.43-.03-.16-.1-.29-.22-.4s-.21-.17-.28-.17Z"/>
      <path class="cls-2" d="m112.75,59.89v.53h-6.33v-.53h6.33Z"/>
    </g>
    <g>
      <path class="cls-5" d="m17.76,40.66c.46-.21.95-.33,1.48-.38.79-.08,1.48.15,2.07.69.07.06.1.12.1.18,0,.09-.03.16-.09.21l-.38.37c-.17.45-.23.97-.19,1.55l2.21-.29.35-.53c.1-.14.22-.17.38-.1.8.4,1.52.86,2.15,1.38.05.05.07.1.07.16,0,.07-.02.12-.07.15l-.45.44c-.45,1.61-1.15,3.1-2.09,4.47-.87,1.23-1.92,2.25-3.16,3.06s-2.44,1.34-3.63,1.58c1.8-1.17,3.41-2.71,4.85-4.63.91-1.42,1.41-3,1.49-4.76-2.22.06-4.39.41-6.52,1.05l-.03,1.73v1.96c-.04.26-.2.45-.47.56-.26.11-.5.08-.7-.09l-.85-.64c-.08-.12-.09-.24-.04-.38.3-1.28.26-2.55-.12-3.82-.1-.35-.3-.63-.62-.85l-.28-.18c.09-.14.25-.21.48-.22.16,0,.29.02.41.06l1.27.41c.3.1.61.13.91.09l2.33-.25-.15-2.29c0-.21-.09-.34-.28-.41l-.45-.13s-.03-.03-.03-.06,0-.05.03-.07Z"/>
      <path class="cls-5" d="m28.51,46.1c.7.15,1.51.15,2.42.01,2.17-.55,4.35-.92,6.55-1.11.3,0,.59-.12.86-.32l.26-.22c.2-.15.39-.16.59-.04.57.4,1.08.89,1.55,1.46.04.05.05.1.04.16s-.03.11-.07.16l-.4.25c-.4,1.16-.98,2.2-1.73,3.11s-1.66,1.67-2.71,2.28c-1.75,1.05-3.52,1.67-5.3,1.83,1.54-.43,2.97-1.31,4.28-2.64s2.28-2.96,2.92-4.87c-2.51.23-4.84.83-6.99,1.77-.21.13-.42.12-.62-.03-.75-.53-1.3-1.13-1.66-1.8Zm1.35-3.53c.74.07,1.59.03,2.55-.1,1.53-.24,3.12-.62,4.75-1.14.21-.05.4-.04.56.03.46.21.88.46,1.26.73.15.12.19.26.12.44-.07.17-.2.25-.38.25-2.2.11-4.33.48-6.4,1.13-.19.04-.39.02-.6-.06-.8-.37-1.42-.8-1.85-1.27Z"/>
      <path class="cls-5" d="m45.05,43.36c.32-.33.77-.45,1.35-.35.7.1,1.26.43,1.68,1.01.09.12.12.25.09.4s-.13.27-.29.38c.06,1.85-.28,3.56-1.03,5.16-.45.82-1.04,1.51-1.76,2.07s-1.4.93-2.02,1.11c.96-1.01,1.69-2.29,2.19-3.85s.66-3.18.46-4.85c-.03-.32-.17-.61-.42-.85l-.25-.22Zm3.24-1.85c.36-.25.81-.35,1.35-.29.8.15,1.46.52,1.99,1.11.17.16.18.33.04.51-.14.18-.22.37-.25.59l-.34,5.68c2.4-1.21,4.1-2.85,5.08-4.91-.21,1.32-.71,2.64-1.52,3.96s-1.84,2.46-3.09,3.41c-.18.18-.26.38-.26.62,0,.02-.01.04-.04.06-.04.02-.07.02-.1,0-.86-.51-1.61-1.09-2.24-1.74-.05-.07-.05-.14,0-.22.24-.49.34-.98.28-1.48l-.18-6.11c-.02-.36-.15-.67-.38-.92l-.34-.26Z"/>
      <path class="cls-5" d="m62.33,40.87c.37-.33.95-.37,1.73-.1.44.15.76.42.95.82.04.14,0,.24-.09.31-.21.14-.37.32-.45.56l-.29.81,1.35-.72c.5-.12.91.02,1.25.41.09.1.13.21.13.35s-.04.25-.13.35c-1,.78-2.16,1.23-3.49,1.35l-.53,1.39c.86-.63,1.65-.79,2.36-.45.57.27.93.76,1.08,1.46l2.21-1c.21-.12.28-.3.22-.54l-.06-.15c-.03-.08-.02-.14.03-.19.04-.04.1-.05.18-.03.86.23,1.46.75,1.82,1.55.14.39.06.75-.22,1.08-.22.24-.51.31-.85.19-1.04-.3-2.12-.3-3.22.01l.07,1.86c-.04.17-.1.33-.19.48-.37.34-.79.49-1.26.44-.22-.03-.4-.12-.53-.28s-.19-.34-.17-.56l.15-1.35c-.59.14-1.03.41-1.32.81-.16.25-.23.53-.23.83s.09.57.28.81c.44.47.98.72,1.63.75,1.06-.03,2.1-.21,3.11-.53.28-.04.55,0,.81.14s.46.32.62.56c.09.15.11.3.07.45-.04.15-.13.26-.28.34-1.39.7-2.85.92-4.39.64-.91-.13-1.76-.45-2.55-.97-.28-.17-.5-.4-.66-.69s-.23-.61-.22-.94c.02-.57.2-1.07.54-1.52.68-.77,1.56-1.31,2.62-1.61l-.1-.89c-.02-.19-.1-.34-.25-.47s-.32-.19-.51-.19c-.47.06-.82.27-1.04.63-.72,1-1.36,1.99-1.9,2.97-.14.21-.32.37-.56.45s-.48.08-.73-.01c-.45-.16-.74-.46-.88-.92-.05-.28.03-.52.25-.72,1.34-.95,2.37-2.21,3.11-3.79-.65.06-1.2-.07-1.65-.38s-.72-.64-.81-1c.91.35,1.93.35,3.06,0,.2-.71.28-1.41.26-2.08,0-.2-.08-.36-.23-.5-.17-.14-.19-.22-.06-.25Z"/>
      <path class="cls-5" d="m72.94,42.79h2.26v-2.58l1.73.29c.1.04.17.1.21.18.02.06.02.15,0,.26l-.35.44v1.41h.23l.38-.62c.04-.08.11-.12.21-.12.1-.02.17,0,.21.09l.82.88c.08.08.1.17.06.26-.06.1-.14.16-.23.18h-1.67v1.7h.23l.38-.62c.06-.06.12-.09.18-.1s.12,0,.18.04l.91.85c.08.08.1.17.07.28s-.1.17-.22.19h-1.58c.14.1.18.23.12.41l-.26.67v.94h.12l.41-.7c.04-.06.11-.09.21-.09.04,0,.1.03.18.09l.82.85c.06.08.07.18.03.29-.04.08-.12.13-.23.15h-1.52v3.22c3.4.43,6.76.35,10.08-.23-.84.53-1.45,1.25-1.82,2.17-2.64.25-5.22.08-7.76-.53-.62-.18-1.19-.47-1.68-.88s-.88-.91-1.16-1.49c-.43,1.15-1.13,2.14-2.11,2.96.84-2.29,1.16-4.62.97-7l1.9.44v-1.26h-2.55l-.21-.64h2.75v-1.7h-2.02l-.23-.67Zm2.26,4.75l-.29.23c.04.74-.05,1.49-.26,2.26.12.27.3.53.56.76v-3.25Zm3.75-5.42l1.58.79h.82l-.12-2.7,1.88.47c.39-.06.76.01,1.1.22s.57.49.69.86c.06.21.05.4-.03.56l.88.67c.1.12.13.22.09.32-.06.12-.15.18-.26.18h-2.67c.04.84.17,1.75.38,2.72.27-.68.45-1.34.53-1.96l1.46.64c.1.06.16.16.18.29.02.12-.02.22-.12.32l-.29.21c-.21.84-.6,1.62-1.14,2.34.08.21.17.43.26.64.06.1.15.15.26.15s.21-.04.26-.12l1.29-1.82-.47,1.82c-.12.49-.12.99,0,1.49.08.31-.01.57-.28.78s-.54.22-.83.04c-.7-.43-1.26-1.01-1.67-1.73-.88.72-1.85,1.23-2.9,1.52.96-.72,1.77-1.59,2.43-2.61-.51-1.5-.8-3.09-.88-4.75h-.82v4.98c.43-.08.91-.18,1.44-.29-1,.84-2.05,1.59-3.16,2.26l-.09.12c-.1.08-.2.11-.29.09s-.17-.08-.21-.18l-.62-1.52c.35-.02.79-.07,1.32-.15v-6.68Zm4.89.79l.23-.21c-.29-.02-.46-.18-.5-.47-.12-.37-.29-.71-.53-1.03-.1.53-.15,1.09-.15,1.7h.94Z"/>
      <path class="cls-5" d="m90.99,44.82s.02.09.01.29c-.02.27.09.48.34.63.24.12.47.1.69-.04l2.87-1.6c.45-.25.93-.33,1.44-.22s.92.36,1.25.76c.13.2.18.42.15.67s-.12.46-.28.63c-.84.7-1.69,1.51-2.56,2.43h.83c.25,0,.49.08.7.25s.33.37.36.62c.04.62,0,1.24-.13,1.88-.02.21.03.39.15.53.12.17.27.25.45.26.87.04,1.69-.12,2.46-.47.31-.13.61-.09.89.1.26.18.39.42.37.73s-.15.55-.4.7c-1.44.52-2.9.62-4.39.32-.32-.09-.6-.25-.84-.48s-.4-.51-.48-.83c-.12-.8-.07-1.67.13-2.59-1.11.4-2.05.94-2.81,1.63s-1.36,1.5-1.79,2.42c-.14.27-.35.37-.63.29l-1.01-.37c-.26-.13-.42-.33-.47-.6-.05-.28.01-.53.19-.75l4.54-3.9c1.02-.91,1.92-2.06,2.72-3.46-1.28.71-2.33,1.53-3.15,2.46-.35.37-.78.56-1.3.56s-.94-.18-1.28-.53c-.21-.3-.28-.64-.23-1.01s.22-.66.51-.88l.7-.45Zm1.6-4.28c.48.37,1.11.56,1.89.56l1.85-.21c.45-.04.86.09,1.25.4.35.32.54.72.56,1.2,0,.16-.04.3-.14.43s-.23.21-.39.24l-1.16-.04c-1.34-.02-2.49.13-3.44.45.3-.32.9-.67,1.79-1.05-.77-.15-1.33-.42-1.67-.83s-.52-.79-.53-1.15Z"/>
      <path class="cls-5" d="m103.58,44.18l.88.16c.21.04.43,0,.66-.09,2.57-1.34,5.26-2.31,8.09-2.93.3-.15.61-.17.92-.07.7.33,1.22.85,1.55,1.55.05.16.03.3-.06.44-.09.13-.21.2-.37.22h-1.2c-.73.07-1.45.26-2.15.57-1,.4-1.66,1.1-1.99,2.09-.26.67-.38,1.36-.34,2.07s.23,1.38.59,2.03c.34.47.79.78,1.35.93s1.09.11,1.61-.12c.61-.03,1.07.22,1.39.75.15.23.19.49.13.77s-.2.5-.41.67c-1.07.38-2.17.42-3.3.12-.91-.21-1.65-.69-2.21-1.44s-.82-1.61-.75-2.57c.02-1.09.27-2.13.75-3.11s1.23-1.95,2.26-2.91c-2.02.68-3.65,1.7-4.88,3.06-.12.1-.25.12-.4.07-.56-.18-1.03-.48-1.41-.92s-.62-.88-.72-1.33Z"/>
      <path class="cls-5" d="m22.75,59.89v.53h-6.33v-.53h6.33Z"/>
      <path class="cls-5" d="m24.8,58.39c.79-.12,1.54.1,2.28.68.17.12.26.29.28.5.01.22-.06.4-.21.54-.16.12-.35.18-.56.17s-.39-.09-.53-.23c-.25-.23-.42-.52-.54-.87-.16-.44-.4-.7-.72-.79Zm.29,3.94c.49.11,1,.06,1.56-.12,2.34-1.17,4.24-2.72,5.7-4.63-1.11,2.44-2.88,4.42-5.33,5.94-.12.12-.22.25-.3.4-.03.05-.07.08-.11.09-.06.01-.12,0-.16-.03-.63-.46-1.08-1.01-1.35-1.64Zm1.17-5.65c.77-.23,1.57-.12,2.41.34.21.12.33.31.36.55.04.24-.04.45-.22.62-.13.12-.28.17-.45.17s-.32-.07-.44-.19c-.19-.21-.38-.45-.54-.73-.32-.47-.69-.73-1.12-.77Z"/>
      <path class="cls-5" d="m33.46,60.06l.62.02c.18-.01.33-.08.44-.21l1.56-1.86c.14-.11.31-.16.51-.14s.36.1.49.22c1.29,1.55,2.79,2.85,4.49,3.9.12.09.2.21.25.35s.04.29-.03.43c-.06.21-.18.34-.38.42s-.38.06-.55-.03c-1.56-1.17-2.88-2.57-3.94-4.2-.06-.1-.15-.15-.25-.15-.13,0-.22.06-.26.17l-1.19,2.39s-.06.08-.12.11-.11.03-.17,0c-.36-.13-.66-.33-.92-.59s-.44-.54-.54-.83Zm5.26-2.41c.19-.08.45-.07.78.02s.59.29.76.58c.12.25.09.47-.11.66-.08.08-.19.11-.32.09-.12-.01-.21-.07-.26-.18l-.18-.48c-.18-.39-.4-.62-.69-.69Zm1.09-.43c.48-.15.97-.03,1.48.37.11.09.17.21.18.36.01.14-.04.26-.15.37-.1.09-.22.11-.36.07-.14-.02-.24-.1-.3-.22l-.16-.34c-.2-.37-.43-.57-.69-.61Z"/>
      <path class="cls-5" d="m43.95,57.04c.21-.22.5-.33.86-.34s.67.11.91.36c.05.05.08.11.09.18s0,.13-.05.19c-.06.14-.11.29-.14.45-.11,1.09-.13,2.16-.07,3.22-.01.38-.18.66-.49.84-.19.06-.33.01-.43-.14l-.35-.48c-.06-.11-.08-.23-.05-.38.21-1.12.24-2.26.11-3.39-.02-.13-.07-.25-.17-.35l-.22-.15Zm3.42-.45c.21-.23.5-.35.88-.35.34.03.64.14.91.33.06.04.1.09.11.16s.01.14-.02.2l-.21.46c.02,1.24,0,2.41-.07,3.5-.04.84-.36,1.53-.98,2.07-.8.69-1.64,1.12-2.5,1.27.56-.29,1.07-.77,1.55-1.45.44-.62.67-1.29.7-2.04l-.03-3.67c-.06-.23-.17-.4-.34-.48Z"/>
      <path class="cls-5" d="m51.66,57.67l.04.02c.38.13.78.16,1.19.09,1.52-.32,3.1-.55,4.75-.69l.4-.32c.08-.05.16-.06.25,0,.62.3,1.08.77,1.36,1.39,0,.02,0,.04,0,.05-.01.02-.03.03-.05.03h-.2s-.3.09-.3.09l-2.44,1.25c-.04.16-.14.28-.32.33-.04.83-.28,1.59-.72,2.29-.82,1.11-1.83,1.78-3.02,2.01.68-.35,1.25-.92,1.71-1.73s.7-1.68.7-2.63c0-.25-.09-.47-.26-.66l-.28-.19s-.02-.02-.03-.04c0-.02,0-.03,0-.04l.16-.11c.07-.05.15-.06.23-.05.57.11,1.11.31,1.63.61.42-.47.78-1,1.07-1.57-1.46.11-2.82.41-4.1.91-.08.17-.2.25-.38.25-.37-.02-.69-.17-.96-.44s-.42-.55-.44-.84Z"/>
      <path class="cls-5" d="m64.4,57.86c.57,1,.72,2.03.43,3.08-.11.53-.34,1.01-.68,1.43s-.76.74-1.26.96c-.17.08-.34.09-.5.03-.3-.16-.47-.43-.51-.81-.32-.04-.58-.14-.78-.32s-.34-.4-.41-.67c-.12-.57-.04-1.11.24-1.63.3-.61.71-1.12,1.24-1.55s1.13-.71,1.79-.85c.98-.27,1.93-.18,2.84.27.44.21.81.5,1.12.86s.52.78.64,1.25c.13.52.13,1.02-.02,1.52s-.42.93-.81,1.29c-.49.45-1.04.77-1.67.97s-1.19.27-1.7.22c.57-.16,1.12-.49,1.64-1.01s.91-1.12,1.15-1.83c.12-.43.15-.86.07-1.28s-.25-.82-.54-1.18c-.28-.31-.61-.53-1-.67s-.82-.17-1.3-.1Zm-.62.16c-1.03.67-1.67,1.58-1.92,2.72-.13.52-.06,1,.2,1.47.08.09.18.14.3.16s.23-.02.32-.12c.54-.55.91-1.19,1.1-1.92s.19-1.5,0-2.31Z"/>
      <path class="cls-5" d="m69.44,57h3.32v-1.2l1.25.25c.08.01.14.06.18.14.02.08.01.16-.04.22l-.14.27v.31h2.06l.49-.58c.05-.07.11-.11.19-.11.09,0,.17.03.23.09l.65.58c.07.07.09.15.05.23s-.1.12-.19.12h-3.18l1.04.5s.06.08.05.14c-.02.06-.06.09-.12.09h-.11c-.28.36-.59.67-.91.92h1.71l.23-.33s.08-.08.15-.09.12,0,.17.03l.72.47c.06.05.09.11.11.19,0,.08-.02.15-.07.21l-.21.25v3.86c-.01.22-.08.41-.22.58s-.31.28-.52.33c-.07.04-.14.03-.21-.02-.07-.04-.12-.09-.14-.17,0-.09-.05-.17-.14-.24l-.81-.57c-.21.08-.44.1-.69.06-.11-.02-.16-.09-.18-.21v-.26h-1.11v.15c0,.09-.05.17-.14.24-.23.11-.47.16-.7.16-.05,0-.09-.02-.14-.06-.04-.05-.05-.1-.05-.15v-2.22c-.22.15-.49.29-.81.4v2.38c0,.09-.05.17-.14.24-.23.13-.48.18-.74.14-.12-.03-.18-.11-.18-.23v-5.59l1.04.45h.95c-.12-.11-.19-.25-.21-.4.01-.42-.04-.84-.16-1.25h-2.16l-.16-.33Zm1.76,2.39v1.85c.57-.48.87-1.1.88-1.85h-.88Zm.83-2.06c.27.08.5.22.68.42s.3.45.34.72c.01.21-.06.38-.23.51h1.04c.19-.54.28-1.1.28-1.65h-2.11Zm1.04,2.06c-.07.67-.37,1.23-.9,1.66l.88.38h1.11l.21-.26c.08-.11.18-.12.28-.05l.6.37c.11.09.12.18.05.29l-.14.18v1.32c0,.06-.02.12-.07.18l.56.02c.09,0,.16-.04.21-.11.06-.06.09-.13.09-.22v-2.44c-.19.16-.4.25-.63.26h-1.07c-.16,0-.3-.06-.4-.18s-.16-.24-.16-.39v-1.01h-.62Zm-.02,2.43v.92h1.11v-.92h-1.11Zm1.51-2.43v.51s.01.09.04.12.07.05.11.05h.42c.14-.01.24-.09.3-.24l.14-.4.37.71v-.76h-1.39Z"/>
      <path class="cls-5" d="m81.5,56.1l1.49.44s.08.04.11.1c.01.05,0,.1-.02.15l-.19.28c.05,1.34.43,2.56,1.14,3.68s1.67,1.98,2.87,2.58c-.67.04-1.24.3-1.71.78-.81-.76-1.43-1.64-1.87-2.63s-.67-2.04-.69-3.15c-.22,1.29-.71,2.45-1.47,3.48s-1.71,1.84-2.87,2.44c1.05-1.11,1.86-2.37,2.41-3.76s.82-2.85.81-4.38Z"/>
      <path class="cls-5" d="m88.88,56.45c.18-.11.42-.16.74-.16.43.06.8.25,1.09.56.03.04.04.08.04.14s-.02.1-.06.13c-.17.18-.25.44-.25.8.18-.21.34-.28.47-.21.21.11.39.25.54.41.07.1.06.19-.04.27-.39.45-.87.77-1.44.97-.38.86-.63,1.76-.76,2.71-.05.69-.15,1.34-.3,1.96-.01.09-.06.14-.15.15-.29.04-.5-.06-.65-.29-.19-.32-.23-.67-.12-1.03.44-1,.76-2.09.97-3.26-.33,0-.59-.1-.78-.29-.19-.18-.29-.36-.29-.55.18.12.4.13.68.03l.6-.26c.12-.48.17-.95.14-1.42,0-.17-.06-.32-.17-.44s-.19-.19-.25-.21Zm2.41,4.65c-.09.22-.09.52,0,.9.06.22.18.4.36.52s.39.17.61.15c.72-.02,1.41-.17,2.07-.47.26-.05.5,0,.73.15.17.09.26.22.28.4.02.2-.03.35-.16.45-.99.62-2.07.79-3.23.51-.28-.08-.52-.22-.7-.44s-.3-.47-.33-.76c-.05-.29-.02-.58.08-.85s.2-.46.29-.55Zm.53-2.17c.34-.39.86-.6,1.56-.63.33-.01.64.07.92.24s.5.41.64.7c.08.28.06.53-.06.77-.07.11-.17.18-.3.22s-.26.04-.38,0c-.53-.22-.99-.32-1.39-.28l.4-.18c.1-.06.16-.15.19-.25,0-.08,0-.16-.04-.24-.08-.13-.18-.23-.33-.28-.5-.16-.91-.18-1.22-.06Z"/>
      <path class="cls-5" d="m98.6,56.33c.16-.21.41-.3.75-.25.46.04.88.18,1.24.43.09.05.14.14.14.25s-.05.2-.15.27l-.13.1-.25.8,1.28-.62c.12-.07.24-.09.36-.06.28.08.53.23.74.45.06.08.08.16.07.26-.02.09-.07.17-.15.23-.85.53-1.8.87-2.84,1.01-.19.52-.41,1.05-.66,1.6.84-.49,1.67-.81,2.5-.96.67-.16,1.32-.08,1.92.25.28.18.49.42.62.72s.18.62.13.95c-.09.69-.44,1.2-1.04,1.54-1.52.79-3.07,1.04-4.63.76,1.34-.06,2.6-.56,3.76-1.49.43-.32.63-.75.62-1.27-.01-.32-.16-.58-.45-.77-.49-.26-.99-.28-1.51-.07-1.01.51-1.84,1.24-2.49,2.2-.03.06-.08.08-.15.08-.31.02-.6-.05-.88-.21-.23-.22-.35-.5-.33-.82,0-.07.02-.13.06-.19.54-.64.99-1.4,1.36-2.29-.42.03-.78-.06-1.08-.25s-.48-.41-.56-.64c.56.28,1.2.28,1.91.02.15-.48.25-.96.31-1.43-.03-.16-.1-.29-.22-.4s-.21-.17-.28-.17Z"/>
      <path class="cls-5" d="m112.75,59.89v.53h-6.33v-.53h6.33Z"/>
    </g>
  </g>
  <g id="path4296">
    <path class="cls-3" d="m65.66,37.43s-.05.05-.17.05c-.09,0-.11,0-.15.03-.03.02-.07.04-.1.04s-.08.03-.1.04-.07.03-.1.03c-.03,0-.06.01-.07.02-.01,0-.06.01-.1.02-.11.01-.21.03-.26.06-.02.01-.05.02-.06.02s-.04.01-.07.03c-.03.02-.06.02-.07.02,0,0-.05,0-.09-.01-.04,0-.09-.01-.11-.02-.05-.02-.08-.02-.1,0-.02.02-.06.02-.09,0-.02-.01-.04-.01-.09,0-.07.01-.11.02-.31.02-.19,0-.33-.03-.35-.08-.01-.03-.03-.05-.07-.05-.05,0-.13-.03-.19-.07q-.09-.06-.09-.15c0-.08,0-.1-.03-.1-.09,0,.06-.18.2-.24.08-.03.11-.05.22-.15.1-.08.17-.11.26-.11.05,0,.08,0,.1-.01.02,0,.04-.02.05-.02s.04,0,.08-.02c.06-.02.12-.02.31,0,.05,0,.16.01.24,0,.09,0,.16,0,.18,0,.03.01.04,0,.11-.03.04-.02.11-.06.16-.07.09-.03.14-.08.14-.11,0-.01.01-.03.03-.04.02,0,.04-.03.05-.04.02-.03.03-.04.14-.08.08-.03.09-.04.09-.07,0-.02,0-.03.05-.05.07-.03.08-.05.07-.07-.02-.03,0-.03.1-.09.1-.05.13-.1.06-.08-.07.01-.06-.04.01-.07.03-.01.03-.02.03-.04,0-.02,0-.04.03-.08.04-.06.05-.06.03-.08,0,0-.02,0-.05,0-.03,0-.04,0-.05,0-.02-.02,0-.04.03-.05.05,0,.06-.01.08-.05.02-.04.01-.12-.01-.18-.03-.07-.05-.13-.05-.15,0,0-.01-.03-.03-.04-.04-.03-.05-.03-.04,0,.01.02.01.06,0,.06-.02.01-.05-.04-.1-.13-.04-.07-.08-.13-.12-.13,0,0-.02-.01-.03-.03-.03-.04-.08-.04-.05,0,.03.05-.03.07-.06.02-.01-.02-.04-.05-.06-.07-.02-.02-.06-.06-.08-.09-.06-.08-.17-.14-.13-.07.02.03.02.05,0,.05-.01,0-.05-.04-.12-.12-.05-.06-.15-.13-.23-.17-.24-.1-.28-.12-.29-.13,0,0-.04-.01-.08-.02s-.09-.01-.12-.01c-.07,0-.07.08,0,.15.03.04.08.14.07.15-.01.01-.03,0-.06-.05-.14-.26-.2-.33-.27-.28-.02.01-.02.01-.06,0-.03-.02-.04-.02-.1-.02-.06,0-.06,0-.09-.02-.02-.02-.05-.03-.08-.04-.08-.02-.29-.17-.34-.25-.01-.02-.02-.03-.03-.03-.05,0-.2-.2-.2-.26,0,0,0-.03-.02-.05-.01-.03-.02-.07-.03-.15v-.11s.04-.07.04-.07c.1-.16.18-.23.27-.23.05,0,.05,0,.04-.05,0-.03,0-.04,0-.07.02-.03.02-.05.01-.06,0-.02,0-.04,0-.07.02-.05.02-.05,0-.1-.02-.05-.02-.07.02-.25.02-.1.17-.15.29-.1.08.04.1.03.1-.04,0-.02,0-.05.01-.07,0-.02.02-.08.02-.14,0-.09.02-.12.03-.09,0,.01-.02.24-.03.33-.02.09.02.1.04,0,.02-.1.12-.28.15-.28,0,0,0,0,0,.03,0,.02-.02.04-.02.04s-.02.07-.05.13c-.08.17-.08.17.07.12.08-.03.11-.03.2-.03.06,0,.12,0,.14,0,.02,0,.05,0,.07,0,.03.01.05,0,.17,0,.19-.03.18-.02.21-.14.04-.17.05-.19.06-.2,0,0,0,.06-.02.14-.04.15-.04.16,0,.16.05,0,.06-.01.11-.21.03-.1.06-.19.06-.19.01,0,0,.02-.05.2-.07.23-.06.24.32.2.07,0,.22.01.28.03.03.01.04.01.1,0,.08-.02.09-.02.11.03.01.04.12.13.15.13,0,0,.05-.02.08-.03.21-.08.38-.03.47.13.03.04.06.06.18.08.06,0,.16.03.23.06.1.03.13.04.15.03.05-.02.08-.01.09.01,0,.02.01.02.12.02.13,0,.2.02.13.05-.07.02.02.1.13.1.03,0,.05.01.06.04.02.04.1.06.16.05.06-.01.12-.01.17,0,.07.02.37.01.42,0,.02,0,.07-.02.1-.02.04,0,.08-.02.13-.04.14-.07.2-.09.23-.07.03.02.08,0,.13-.05.01-.01.05-.04.08-.06s.07-.04.08-.05c.02-.01.07-.05.13-.08.18-.11.2-.12.22-.14.06-.06.15-.13.18-.14.02,0,.04-.02.04-.03,0-.02.1-.09.14-.11.01,0,.06-.05.12-.09.05-.04.11-.08.12-.09.01,0,.05-.04.08-.06.1-.1.33-.27.41-.31.02,0,.06-.03.09-.06.11-.09.15-.11.2-.14.03-.01.08-.05.11-.07.05-.04.06-.05.1-.04.05,0,.07,0,.15-.07.09-.08.19-.15.21-.15.04,0,.02.02-.05.08-.06.04-.07.06-.05.08,0,0,0,.02,0,.03,0,.03,0,.03.02.01.01,0,.02-.02.02-.03,0-.03.04-.06.09-.07.01,0,.03,0,.03-.01,0,0,.03-.03.06-.05.03-.02.08-.06.11-.08.06-.05.13-.09.14-.09.02,0,.01.02,0,.02-.01,0-.02.01-.02.02s-.02.03-.05.05c-.07.05-.09.07-.09.11,0,.04,0,.04.25-.1.17-.1.34-.16.34-.13,0,0-.04.03-.09.05-.09.04-.25.12-.26.14,0,.01.02.02.04.01.01,0,.05-.02.08-.03s.08-.03.1-.04c.14-.1.31-.15.43-.15.07,0,.09,0,.11-.02.04-.03.07-.04.08-.02,0,.02,0,.03-.06.06-.09.04-.06.05.07.02.02,0,.08-.01.13-.01.07,0,.11,0,.16-.03.1-.03.35-.07.37-.05.05.04,0,.07-.11.08-.17,0-.19,0-.21.02,0,0-.02.01-.03.01-.03,0-.1.04-.09.05,0,0,.02,0,.05,0,.02,0,.06-.02.08-.02.02,0,.06,0,.09-.01.04,0,.06,0,.08,0,.02.01.03.01.09,0,.15-.04.3-.03.3.02,0,.06.02.07.08.04.13-.05.26-.05.25.01,0,.04,0,.05.09.02.1-.02.15-.03.16,0,.01.03-.01.05-.06.06-.02,0-.07.02-.1.03-.03.01-.07.02-.08.01-.05-.02-.11.03-.07.05.01,0,.02.02.02.04,0,.03,0,.03.17.05.07,0,.1,0,.14,0,.03,0,.09-.01.16,0,.08,0,.11,0,.12,0,0-.01-.09-.04-.14-.04-.05,0-.05-.02,0-.04.04-.02.05-.04.03-.05-.02-.01,0-.02.04-.02.05,0,.06.01.04.05-.01.03-.01.03,0,.04.01,0,.03.02.05.04l.03.03.09-.03c.12-.04.15-.03.1.04l-.02.03.03.02s.04.02.07.02c.21-.03.31-.02.23.03-.04.02-.04.04-.02.05,0,0,.04.02.06.03.04.02.05.02.13.01.12-.01.13,0,.1.07,0,.02,0,.02.1.01.11,0,.12,0,.11.02,0,0-.03.01-.07.01-.14,0-.05.07.11.08.02,0,.03,0,.03.03,0,.02,0,.03.02.03.04,0,.02.03-.02.04-.04.01-.04.01-.03.03.01.02.03.02.23,0,.07,0,.07,0,.08.02.02.04,0,.07-.05.07-.02,0-.06,0-.07.02l.18.15c.06,0,.09.02.16.06.08.05.08.05.18.05.12,0,.18.05.06.05-.04,0-.05.01-.04.04,0,.02,0,.02,0,.03-.04.04,0,.06.14.07.17.01.14.03-.06.03-.19,0-.23.03-.1.07.01,0,.06.03.1.05.11.07.14.08.24.09.12,0,.15.04.05.05-.06,0-.09.02-.07.03.01,0,.01.01,0,.03-.02.03,0,.04.05.05q.07.02.07.03s-.01.01-.02.02c-.06.03,0,.05.1.03.07-.01.1,0,.1.03,0,.04-.03.05-.17.02h-.03s.02.02.02.02c.02.02.02.04.02.08,0,.04,0,.05.02.06.05.02.2.04.23.03.03,0,.03,0,.05.03.03.06-.02.1-.11.07-.08-.02-.12,0-.06.05.01,0,.02.03.03.05.01.03.05.04.19.07.04,0,.1.02.13.03.09.02.13.06.09.1-.01.01-.01.01-.16-.03-.02,0-.09-.02-.14-.02-.09,0-.09,0-.1-.03,0-.03-.01-.04-.07-.06-.06-.02-.06,0,0,.03.03.02.08.07.13.12.1.09.11.1.17.11.03,0,.06.01.08.02.02,0,.04.01.06.01.04,0,.07.02.06.05,0,.01-.02.02-.08.02-.09,0-.1,0-.09.04,0,.02,0,.03-.01.03-.03.01,0,.04.06.05.02,0,.07.01.1.01.11.02.12.06.01.06-.08,0-.09.02-.02.04.07.01.11.03.1.05,0,.02-.09.03-.15,0-.04-.01-.05-.01-.06,0-.02.02.02.04.14.07.07.02.12.03.12.04,0,.02-.01.02-.08.01-.08-.01-.08,0-.06.05.03.06,0,.08-.04.02-.04-.06-.13-.13-.17-.16l-.04-.02v.03s0,.03-.02.03c-.12.03.18.19.5.26.15.03.1.06-.08.04-.11-.01-.09.1.03.15.05.02.04.05-.03.05l.18.13c.11.02.16.06.08.06-.04,0-.04.01,0,.03.05.02.09.01.13,0,.07-.04.12.03.05.08-.07.05,0,.06.1,0,.06-.04.1-.04.1,0,0,.01-.01.02-.04.04-.02,0-.05.03-.06.04-.01.02-.04.03-.05.04-.04,0-.01.02.05.02.06,0,.09-.02.17-.08.08-.07.11-.08.12-.06.02.02.03.02.07,0,.06-.04.07,0,.01.05-.03.03-.04.04-.04.07,0,.02,0,.04,0,.04-.01,0-.01.03,0,.03.02,0,.14-.07.2-.12.11-.09.14-.05.03.05-.04.04-.07.07-.06.08.02.02.15-.04.21-.09.11-.09.16-.13.17-.12.02.01,0,.06-.04.1-.09.09.05.09.21,0,.11-.07.14-.07.14-.04,0,.02-.05.06-.15.13-.11.07-.11.09-.02.08.08,0,.1-.01.27-.1.11-.05.13-.06.14-.03,0,.02-.01.04-.09.08-.04.02-.07.04-.07.04-.01.02.02.02.07,0,.07-.04.1-.03.07.02,0,.02-.02.04-.03.06-.01.03-.02.03-.04.03-.03,0-.06,0-.06.03,0,.02.02.01.22-.03.11-.02.16-.04.24-.07.11-.05.13-.05.13-.03,0,.02-.07.06-.16.11-.05.03-.06.04-.02.06.04.02.06.02.18-.04.17-.09.23-.1.23-.06,0,.01-.02.03-.07.05-.05.02-.08.04-.08.06,0,.02-.03.03-.07.06-.1.05-.09.06.04.05.08,0,.09,0,.22-.08.14-.07.17-.08.18-.06,0,.02-.03.06-.09.09-.08.04-.09.08-.02.1.04.01.07,0,.15-.04.12-.08.17-.09.17-.04,0,.02-.03.04-.12.09-.16.08-.21.12-.15.13.1.02.21-.01.32-.09.04-.03.07-.03.09-.01.02.02,0,.04-.1.1-.1.05-.14.09-.14.1,0,.04.26.05.35.01.13-.06.14,0,.02.07-.04.02-.05.03-.04.05.01.04.03.05.14.05.15,0,.14.07-.01.08-.07,0-.06.03.01.05.02,0,.06.02.07.03.02.01.05.02.08.03.03,0,.08.02.12.03s.08.02.1.02c.04,0,.06.03.04.05,0,0-.03,0-.07,0-.18-.04-.23.11-.07.19.03.02.08.04.11.05.09.04.1.1.02.07-.07-.03-.1-.02-.07.03,0,.01.01.03.01.05,0,.05.06.12.14.16.04.02.06.05.04.07-.02.02-.04.02-.14-.05-.12-.08-.13-.07-.04.03.04.05.04.05.04.09,0,.01.01.03.04.05.17.14.19.16.16.19-.02.01-.03,0-.09-.05-.19-.17-.24-.19-.14-.05.07.1.07.13,0,.08-.04-.03-.06-.03-.06,0,0,.02.03.05.11.13.11.11.13.14.11.16-.01,0-.13-.09-.14-.11-.02-.05-.06-.05-.09-.02-.03.03-.03.03.04.12.07.09.06.15-.01.09l-.03-.03v.03s-.03.05-.08,0c-.02-.02-.04-.03-.04-.02,0,.02.04.09.06.12.09.13.1.23,0,.12-.02-.02-.05-.04-.07-.05h-.03s0,.03,0,.03c0,.03,0,.04-.01.03-.04,0-.04,0-.06.04-.01.04-.01.04,0,.07.01.01.03.05.05.08.02.03.04.06.05.08.05.05-.01.07-.08.02-.06-.04-.08-.03-.05.04.03.05.03.08,0,.09-.02.02-.04,0-.06-.03,0-.01-.02-.03-.02-.03-.02,0,0,.06.04.14.03.06.04.08.03.09-.03.03-.07,0-.11-.09-.03-.07-.07-.07-.14,0l-.04.04.02.08s.04.11.06.16c.02.04.03.08.03.09-.01.02-.04,0-.05-.01,0-.01-.02-.04-.04-.06-.03-.03-.05-.1-.08-.18,0-.02-.02-.06-.03-.08l-.02-.04v.06s-.02.08-.04.1c-.02.04-.02.04,0,.11.02.09.02.12,0,.13-.02.02-.05.01-.05,0,0-.03-.03-.13-.04-.14,0,0-.02,0-.03.01-.01.01-.03.02-.04.02-.03,0-.03.02-.02.12.01.12,0,.16-.03.15-.02,0-.02-.01-.03-.08,0-.06,0-.08-.03-.1-.03-.02-.03-.02,0-.14,0-.03,0-.04,0-.03-.03,0-.05.05-.06.12,0,.08-.02.1-.06.08-.05-.02-.06.07-.04.21.01.07.01.07,0,.09-.04.04-.06,0-.06-.14,0-.03,0-.05-.02-.07-.02-.02-.02-.04-.02-.09,0-.07,0-.1-.04-.1-.02,0-.03.02-.04.1,0,.03-.02.09-.03.12-.01.05-.02.1-.02.18,0,.12-.02.17-.06.14-.01-.01-.02-.03-.01-.11,0-.09,0-.1-.02-.13-.03-.03-.05-.02-.05.03,0,.07-.09.22-.12.2-.02-.01-.01-.04.02-.11.05-.1.06-.18.03-.21-.03-.02-.03-.02,0-.07.02-.04.02-.06,0-.06-.02,0-.05.07-.05.12s-.01.07-.06.09c-.03.02-.1.15-.11.25-.02.1-.07.07-.06-.04,0-.08,0-.08-.01-.09-.03-.01-.03-.04,0-.09.02-.05.03-.07,0-.08-.03-.01-.05.03-.05.1,0,.09-.03.24-.04.26-.04.04-.06.02-.04-.05.01-.07.01-.08-.02-.08-.04,0-.04-.02,0-.21,0-.03-.02-.06-.05-.06-.02,0-.11.24-.14.36-.01.05-.02.05-.04.06h-.03s0-.09,0-.09h0s0-.09,0-.09h-.04s-.04,0-.04,0v-.05s.01-.07.05-.15c.06-.11.06-.12.04-.12-.01,0-.07.09-.11.16,0,.02-.03.04-.06.06-.04.03-.05.04-.06.1-.03.12-.1.14-.08.03,0-.02,0-.06,0-.09,0-.03,0-.06.01-.08l.02-.04-.03-.03s-.11.01-.19.2c-.02.05-.03.06-.05.05-.05,0-.02-.14.12-.42.01-.02.02-.04.01-.04-.02,0-.21.19-.26.25-.07.1-.1.06-.05-.06.04-.09.05-.09-.09.07-.11.13-.16.1-.05-.03.04-.05.05-.08.02-.09-.02,0-.02-.05,0-.08.03-.05.1-.2.09-.2-.01,0-.1.05-.13.07-.02.01-.04.03-.04.03s-.04.02-.08.04c-.08.05-.12.06-.15.06-.04,0-.03-.04.01-.05.08-.03.18-.11.21-.17.03-.05.01-.05-.04,0-.05.05-.11.06-.11.02,0-.02.08-.11.14-.16.06-.05.08-.07.07-.09,0-.02-.03,0-.09.04-.03.02-.04.03-.07.02-.02,0-.05,0-.08,0-.04,0-.06,0-.07,0-.03-.01-.02-.04.01-.04.13,0,.28-.12.23-.19,0-.01-.01-.03-.01-.05,0-.03-.04-.03-.12-.01-.04.01-.12.01-.14,0-.02-.02,0-.03.07-.04.26-.04.4-.09.36-.15,0-.02-.09,0-.11.03-.05.05-.11.05-.11.01,0-.03-.02-.04-.07-.05-.06,0-.1-.03-.09-.05,0,0,.02,0,.05,0,.17.02.22.01.36-.1.08-.06.02-.09-.07-.02-.05.04-.08.03-.07,0,.01-.03,0-.04-.1-.06-.08-.02-.02-.05.08-.04h.1s.05-.04.05-.04c.03-.03.07-.06.09-.08.07-.05.07-.06-.04-.06-.1,0-.13,0-.13-.02,0-.02.02-.02.1-.02.13,0,.13-.04,0-.04-.12,0-.07-.05.06-.05.09,0,.1-.02.04-.13-.06-.11-.1-.11-.06,0,.01.03.01.04,0,.05-.02.02-.02.02-.09-.04-.11-.1-.14-.1-.09,0,.05.11.01.15-.16.13-.1,0-.14,0-.14.02,0,.05-.05.06-.64.07-.33,0-.32,0-.34.04-.01.03-.03.02-.03-.02,0-.04.02-.06.07-.06.04,0,.06-.01.05-.03,0,0-.13-.03-.15-.03-.03,0-.07-.04-.06-.06,0,0,.05,0,.1,0,.05,0,.13.02.18.02.1,0,.15.01.19.05.03.03.04.03.31.02.15,0,.21-.02.17-.04-.03-.01-.02-.03.03-.04.06,0,.07-.02.04-.06-.03-.03-.05-.1-.05-.13,0-.04-.04-.13-.07-.16-.04-.04-.05-.05-.05-.01,0,.03-.03.05-.05.03-.04-.02-.05-.01-.05.06,0,.04,0,.08.01.09.01.03,0,.05-.04.05-.09.01-.03.05.09.05.07,0,.09,0,.09.02,0,.02-.02.03-.15.02-.06,0-.12,0-.13,0-.05,0-.06-.03-.03-.06.02-.02.03-.04.03-.05,0,0,.01-.02.03-.02.02,0,.03-.01.03-.02,0-.11-.01-.19-.04-.19-.01,0-.05-.02-.09-.06-.07-.07-.09-.08-.09-.02,0,.07-.06.06-.06-.01s-.02-.12-.08-.18c-.09-.09-.11-.07-.06.05.04.1.01.13-.05.05-.02-.02-.04-.04-.06-.04-.01,0-.05-.02-.08-.04-.05-.03-.05-.03-.17-.04-.07,0-.13,0-.14-.01-.01,0-.03,0-.05.02l-.03.03-.05-.02s-.05-.02-.07,0c-.01.01-.03.02-.03.02,0,0-.03,0-.05-.01-.02,0-.05-.02-.08-.03-.06-.03-.12-.03-.16,0-.04.03-.04.03,0,.16.03.09.03.12.03.16,0,.03,0,.08,0,.1,0,.08-.03.15-.08.2-.07.07-.16.14-.2.16-.02,0-.05.03-.07.05-.02.02-.06.04-.09.06-.03.01-.07.04-.1.06s-.06.04-.08.04c-.05.01-.21.09-.25.13-.02.01-.04.02-.05.02s-.05.02-.1.04c-.06.03-.1.04-.15.04-.04,0-.09.01-.11.02-.03,0-.08.02-.15.02-.12,0-.2.03-.22.08-.02.03-.13.1-.23.13-.05.01-.11.04-.14.05-.06.02-.38.02-.39,0-.01-.04-.04-.05-.09-.03-.13.04-.31.03-.36,0-.02-.02-.04-.02-.07-.02-.04,0-.05,0-.08-.03-.03-.04-.04-.04-.09-.04-.08,0-.08-.03,0-.11.04-.04.03-.06,0-.04-.13.05-.19.04-.14-.03.01-.02.02-.04.02-.05s0-.02.02-.02c.01,0,.02-.02.02-.03,0-.04.04-.09.21-.26.2-.2.2-.21.11-.16-.07.03-.25.03-.39,0-.04,0-.11-.02-.16-.03-.42-.05-.63-.12-.54-.17.01,0,.02-.02.02-.04,0-.04.03-.05.05-.02.02.02.05.01.04-.02,0-.01-.01-.02-.03-.03-.13-.02.18-.33.42-.41.18-.06.19-.07.35-.06.08,0,.16,0,.18,0,.03,0,.06,0,.09,0,.06.02.11.02.14,0,.03-.02.03-.02.06,0,.06.02.12,0,.1-.03-.02-.03-.15-.12-.26-.18-.07-.03-.12-.07-.16-.1-.08-.08-.13-.09-.16-.05-.03.04-.17,0-.23-.06-.04-.04-.07-.04-.07,0,0,.01,0,.03-.01.04-.02.02-.01.03.08.06.11.04.12.09.02.09-.1,0-.22-.08-.18-.11.04-.03,0-.05-.1-.05-.15,0-.09.1.08.14.06.02.03.08-.04.08-.03,0-.06-.01-.11-.04-.08-.05-.09-.05-.11-.02-.02.03-.06.03-.14,0-.05-.02-.06-.02-.08,0-.02.01-.05.01-.11.01-.05,0-.09,0-.11,0-.02,0-.12,0-.21,0-.05,0-.06.02-.01.03.03,0,.12.08.11.1-.01.02-.08,0-.13-.02-.07-.04-.13-.04-.15,0,0,.01-.02.02-.04.02s-.04,0-.05.02c-.03.03-.25.03-.3,0-.02-.01-.03,0-.06,0-.04.02-.03.03-.1-.02-.02-.02-.03,0,0,.03.04.05,0,.06-.1,0-.06-.03-.09-.03-.13-.03h-.06l.02.03s.01.06-.06.02c-.07-.03-.08-.03-.08.02,0,.02-.01.04-.03.06-.03.03-.03.04-.04.14,0,.1,0,.11-.03.13-.02.01-.02.02-.02.2,0,.19,0,.25-.03.15,0-.02-.01-.03-.02-.03-.02,0-.03.14-.02.19.01.04,0,.11-.02.12-.02,0-.04-.02-.04-.04,0-.01,0-.03,0-.04-.03-.04-.04.12-.01.19.01.04.01.05,0,.06-.02.02-.04.07-.06.15,0,.03-.02.06-.03.06-.01,0-.09.12-.11.16-.02.05-.13.17-.17.21-.06.05-.12.08-.13.08,0,0-.03.02-.05.04-.03.03-.04.04-.06.04-.01,0-.04,0-.07.02-.03.01-.06.02-.07.02s-.04,0-.05.02c-.03.02-.15.07-.21.08-.02,0-.07.02-.12.03-.1.03-.33.03-.45,0-.04,0-.11-.02-.15-.02-.05,0-.12-.02-.16-.03-.04-.01-.08-.03-.09-.03-.03,0-.08-.03-.08-.05,0,0,.01-.02.03-.04.04-.04.03-.06-.02-.04-.1.04-.21.02-.19-.04,0-.01.01-.05.02-.07v-.05s-.06,0-.06,0c-.12-.01-.13-.03-.04-.09.1-.08.15-.14.12-.16-.05-.04.06-.12.2-.14.04,0,.13-.06.19-.12.07-.07.21-.14.25-.13.03,0,.03,0,.07-.03.04-.04.16-.09.28-.12.07-.02.09-.04.04-.06h-.03s0-.16,0-.16c0-.08.01-.19.02-.24.02-.16.01-.28,0-.31-.01-.01-.03-.05-.04-.07-.03-.06-.03-.06-.05-.03-.02.03-.03.02-.06-.03-.02-.03-.03-.04-.07-.05-.05-.01-.06-.01-.07.04-.02.07-.06.06-.04,0,.03-.1-.08-.11-.12,0-.04.08-.09.05-.05-.03.01-.04,0-.05-.05-.05-.04,0-.05.02-.09.09-.05.09-.09.08-.05-.01.03-.07.03-.09-.02-.08-.05,0-.07.02-.09.06-.02.04-.04.06-.06.05-.02,0-.02-.04,0-.07.04-.07-.07-.09-.11-.02-.03.06-.08.05-.07-.01,0-.04-.02-.06-.07-.05-.02,0-.08.12-.08.17,0,.02,0,.04-.02.05,0,.01-.01.03-.01.03,0,.02-.05.08-.1.14-.02.02-.05.06-.06.09-.05.08-.13.14-.11.07.02-.06,0-.24-.02-.24-.03,0-.05.11-.03.16.02.03.01.07-.01.1l-.02.02-.02-.03s-.02-.04-.02-.05c0-.01-.01-.03-.02-.05-.01-.02-.03-.04-.03-.05-.02-.04-.03-.02-.03.06,0,.05,0,.1,0,.12,0,.03,0,.04.01.04.04,0-.14.1-.21.11-.01,0-.04.01-.06.02-.03.02-.04.02-.09.01-.04,0-.06,0-.08,0-.01,0-.04.02-.07.02-.05,0-.23.07-.28.09-.02.01-.06.02-.08.02-.05,0-.19.03-.25.06h-.16Z"/>
    <path class="cls-6" d="m65.66,37.43s-.05.05-.17.05c-.09,0-.11,0-.15.03-.03.02-.07.04-.1.04s-.08.03-.1.04-.07.03-.1.03c-.03,0-.06.01-.07.02-.01,0-.06.01-.1.02-.11.01-.21.03-.26.06-.02.01-.05.02-.06.02s-.04.01-.07.03c-.03.02-.06.02-.07.02,0,0-.05,0-.09-.01-.04,0-.09-.01-.11-.02-.05-.02-.08-.02-.1,0-.02.02-.06.02-.09,0-.02-.01-.04-.01-.09,0-.07.01-.11.02-.31.02-.19,0-.33-.03-.35-.08-.01-.03-.03-.05-.07-.05-.05,0-.13-.03-.19-.07q-.09-.06-.09-.15c0-.08,0-.1-.03-.1-.09,0,.06-.18.2-.24.08-.03.11-.05.22-.15.1-.08.17-.11.26-.11.05,0,.08,0,.1-.01.02,0,.04-.02.05-.02s.04,0,.08-.02c.06-.02.12-.02.31,0,.05,0,.16.01.24,0,.09,0,.16,0,.18,0,.03.01.04,0,.11-.03.04-.02.11-.06.16-.07.09-.03.14-.08.14-.11,0-.01.01-.03.03-.04.02,0,.04-.03.05-.04.02-.03.03-.04.14-.08.08-.03.09-.04.09-.07,0-.02,0-.03.05-.05.07-.03.08-.05.07-.07-.02-.03,0-.03.1-.09.1-.05.13-.1.06-.08-.07.01-.06-.04.01-.07.03-.01.03-.02.03-.04,0-.02,0-.04.03-.08.04-.06.05-.06.03-.08,0,0-.02,0-.05,0-.03,0-.04,0-.05,0-.02-.02,0-.04.03-.05.05,0,.06-.01.08-.05.02-.04.01-.12-.01-.18-.03-.07-.05-.13-.05-.15,0,0-.01-.03-.03-.04-.04-.03-.05-.03-.04,0,.01.02.01.06,0,.06-.02.01-.05-.04-.1-.13-.04-.07-.08-.13-.12-.13,0,0-.02-.01-.03-.03-.03-.04-.08-.04-.05,0,.03.05-.03.07-.06.02-.01-.02-.04-.05-.06-.07-.02-.02-.06-.06-.08-.09-.06-.08-.17-.14-.13-.07.02.03.02.05,0,.05-.01,0-.05-.04-.12-.12-.05-.06-.15-.13-.23-.17-.24-.1-.28-.12-.29-.13,0,0-.04-.01-.08-.02s-.09-.01-.12-.01c-.07,0-.07.08,0,.15.03.04.08.14.07.15-.01.01-.03,0-.06-.05-.14-.26-.2-.33-.27-.28-.02.01-.02.01-.06,0-.03-.02-.04-.02-.1-.02-.06,0-.06,0-.09-.02-.02-.02-.05-.03-.08-.04-.08-.02-.29-.17-.34-.25-.01-.02-.02-.03-.03-.03-.05,0-.2-.2-.2-.26,0,0,0-.03-.02-.05-.01-.03-.02-.07-.03-.15v-.11s.04-.07.04-.07c.1-.16.18-.23.27-.23.05,0,.05,0,.04-.05,0-.03,0-.04,0-.07.02-.03.02-.05.01-.06,0-.02,0-.04,0-.07.02-.05.02-.05,0-.1-.02-.05-.02-.07.02-.25.02-.1.17-.15.29-.1.08.04.1.03.1-.04,0-.02,0-.05.01-.07,0-.02.02-.08.02-.14,0-.09.02-.12.03-.09,0,.01-.02.24-.03.33-.02.09.02.1.04,0,.02-.1.12-.28.15-.28,0,0,0,0,0,.03,0,.02-.02.04-.02.04s-.02.07-.05.13c-.08.17-.08.17.07.12.08-.03.11-.03.2-.03.06,0,.12,0,.14,0,.02,0,.05,0,.07,0,.03.01.05,0,.17,0,.19-.03.18-.02.21-.14.04-.17.05-.19.06-.2,0,0,0,.06-.02.14-.04.15-.04.16,0,.16.05,0,.06-.01.11-.21.03-.1.06-.19.06-.19.01,0,0,.02-.05.2-.07.23-.06.24.32.2.07,0,.22.01.28.03.03.01.04.01.1,0,.08-.02.09-.02.11.03.01.04.12.13.15.13,0,0,.05-.02.08-.03.21-.08.38-.03.47.13.03.04.06.06.18.08.06,0,.16.03.23.06.1.03.13.04.15.03.05-.02.08-.01.09.01,0,.02.01.02.12.02.13,0,.2.02.13.05-.07.02.02.1.13.1.03,0,.05.01.06.04.02.04.1.06.16.05.06-.01.12-.01.17,0,.07.02.37.01.42,0,.02,0,.07-.02.1-.02.04,0,.08-.02.13-.04.14-.07.2-.09.23-.07.03.02.08,0,.13-.05.01-.01.05-.04.08-.06s.07-.04.08-.05c.02-.01.07-.05.13-.08.18-.11.2-.12.22-.14.06-.06.15-.13.18-.14.02,0,.04-.02.04-.03,0-.02.1-.09.14-.11.01,0,.06-.05.12-.09.05-.04.11-.08.12-.09.01,0,.05-.04.08-.06.1-.1.33-.27.41-.31.02,0,.06-.03.09-.06.11-.09.15-.11.2-.14.03-.01.08-.05.11-.07.05-.04.06-.05.1-.04.05,0,.07,0,.15-.07.09-.08.19-.15.21-.15.04,0,.02.02-.05.08-.06.04-.07.06-.05.08,0,0,0,.02,0,.03,0,.03,0,.03.02.01.01,0,.02-.02.02-.03,0-.03.04-.06.09-.07.01,0,.03,0,.03-.01,0,0,.03-.03.06-.05.03-.02.08-.06.11-.08.06-.05.13-.09.14-.09.02,0,.01.02,0,.02-.01,0-.02.01-.02.02s-.02.03-.05.05c-.07.05-.09.07-.09.11,0,.04,0,.04.25-.1.17-.1.34-.16.34-.13,0,0-.04.03-.09.05-.09.04-.25.12-.26.14,0,.01.02.02.04.01.01,0,.05-.02.08-.03s.08-.03.1-.04c.14-.1.31-.15.43-.15.07,0,.09,0,.11-.02.04-.03.07-.04.08-.02,0,.02,0,.03-.06.06-.09.04-.06.05.07.02.02,0,.08-.01.13-.01.07,0,.11,0,.16-.03.1-.03.35-.07.37-.05.05.04,0,.07-.11.08-.17,0-.19,0-.21.02,0,0-.02.01-.03.01-.03,0-.1.04-.09.05,0,0,.02,0,.05,0,.02,0,.06-.02.08-.02.02,0,.06,0,.09-.01.04,0,.06,0,.08,0,.02.01.03.01.09,0,.15-.04.3-.03.3.02,0,.06.02.07.08.04.13-.05.26-.05.25.01,0,.04,0,.05.09.02.1-.02.15-.03.16,0,.01.03-.01.05-.06.06-.02,0-.07.02-.1.03-.03.01-.07.02-.08.01-.05-.02-.11.03-.07.05.01,0,.02.02.02.04,0,.03,0,.03.17.05.07,0,.1,0,.14,0,.03,0,.09-.01.16,0,.08,0,.11,0,.12,0,0-.01-.09-.04-.14-.04-.05,0-.05-.02,0-.04.04-.02.05-.04.03-.05-.02-.01,0-.02.04-.02.05,0,.06.01.04.05-.01.03-.01.03,0,.04.01,0,.03.02.05.04l.03.03.09-.03c.12-.04.15-.03.1.04l-.02.03.03.02s.04.02.07.02c.21-.03.31-.02.23.03-.04.02-.04.04-.02.05,0,0,.04.02.06.03.04.02.05.02.13.01.12-.01.13,0,.1.07,0,.02,0,.02.1.01.11,0,.12,0,.11.02,0,0-.03.01-.07.01-.14,0-.05.07.11.08.02,0,.03,0,.03.03,0,.02,0,.03.02.03.04,0,.02.03-.02.04-.04.01-.04.01-.03.03.01.02.03.02.23,0,.07,0,.07,0,.08.02.02.04,0,.07-.05.07-.02,0-.06,0-.07.02l.18.15c.06,0,.09.02.16.06.08.05.08.05.18.05.12,0,.18.05.06.05-.04,0-.05.01-.04.04,0,.02,0,.02,0,.03-.04.04,0,.06.14.07.17.01.14.03-.06.03-.19,0-.23.03-.1.07.01,0,.06.03.1.05.11.07.14.08.24.09.12,0,.15.04.05.05-.06,0-.09.02-.07.03.01,0,.01.01,0,.03-.02.03,0,.04.05.05q.07.02.07.03s-.01.01-.02.02c-.06.03,0,.05.1.03.07-.01.1,0,.1.03,0,.04-.03.05-.17.02h-.03s.02.02.02.02c.02.02.02.04.02.08,0,.04,0,.05.02.06.05.02.2.04.23.03.03,0,.03,0,.05.03.03.06-.02.1-.11.07-.08-.02-.12,0-.06.05.01,0,.02.03.03.05.01.03.05.04.19.07.04,0,.1.02.13.03.09.02.13.06.09.1-.01.01-.01.01-.16-.03-.02,0-.09-.02-.14-.02-.09,0-.09,0-.1-.03,0-.03-.01-.04-.07-.06-.06-.02-.06,0,0,.03.03.02.08.07.13.12.1.09.11.1.17.11.03,0,.06.01.08.02.02,0,.04.01.06.01.04,0,.07.02.06.05,0,.01-.02.02-.08.02-.09,0-.1,0-.09.04,0,.02,0,.03-.01.03-.03.01,0,.04.06.05.02,0,.07.01.1.01.11.02.12.06.01.06-.08,0-.09.02-.02.04.07.01.11.03.1.05,0,.02-.09.03-.15,0-.04-.01-.05-.01-.06,0-.02.02.02.04.14.07.07.02.12.03.12.04,0,.02-.01.02-.08.01-.08-.01-.08,0-.06.05.03.06,0,.08-.04.02-.04-.06-.13-.13-.17-.16l-.04-.02v.03s0,.03-.02.03c-.12.03.18.19.5.26.15.03.1.06-.08.04-.11-.01-.09.1.03.15.05.02.04.05-.03.05l.18.13c.11.02.16.06.08.06-.04,0-.04.01,0,.03.05.02.09.01.13,0,.07-.04.12.03.05.08-.07.05,0,.06.1,0,.06-.04.1-.04.1,0,0,.01-.01.02-.04.04-.02,0-.05.03-.06.04-.01.02-.04.03-.05.04-.04,0-.01.02.05.02.06,0,.09-.02.17-.08.08-.07.11-.08.12-.06.02.02.03.02.07,0,.06-.04.07,0,.01.05-.03.03-.04.04-.04.07,0,.02,0,.04,0,.04-.01,0-.01.03,0,.03.02,0,.14-.07.2-.12.11-.09.14-.05.03.05-.04.04-.07.07-.06.08.02.02.15-.04.21-.09.11-.09.16-.13.17-.12.02.01,0,.06-.04.1-.09.09.05.09.21,0,.11-.07.14-.07.14-.04,0,.02-.05.06-.15.13-.11.07-.11.09-.02.08.08,0,.1-.01.27-.1.11-.05.13-.06.14-.03,0,.02-.01.04-.09.08-.04.02-.07.04-.07.04-.01.02.02.02.07,0,.07-.04.1-.03.07.02,0,.02-.02.04-.03.06-.01.03-.02.03-.04.03-.03,0-.06,0-.06.03,0,.02.02.01.22-.03.11-.02.16-.04.24-.07.11-.05.13-.05.13-.03,0,.02-.07.06-.16.11-.05.03-.06.04-.02.06.04.02.06.02.18-.04.17-.09.23-.1.23-.06,0,.01-.02.03-.07.05-.05.02-.08.04-.08.06,0,.02-.03.03-.07.06-.1.05-.09.06.04.05.08,0,.09,0,.22-.08.14-.07.17-.08.18-.06,0,.02-.03.06-.09.09-.08.04-.09.08-.02.1.04.01.07,0,.15-.04.12-.08.17-.09.17-.04,0,.02-.03.04-.12.09-.16.08-.21.12-.15.13.1.02.21-.01.32-.09.04-.03.07-.03.09-.01.02.02,0,.04-.1.1-.1.05-.14.09-.14.1,0,.04.26.05.35.01.13-.06.14,0,.02.07-.04.02-.05.03-.04.05.01.04.03.05.14.05.15,0,.14.07-.01.08-.07,0-.06.03.01.05.02,0,.06.02.07.03.02.01.05.02.08.03.03,0,.08.02.12.03s.08.02.1.02c.04,0,.06.03.04.05,0,0-.03,0-.07,0-.18-.04-.23.11-.07.19.03.02.08.04.11.05.09.04.1.1.02.07-.07-.03-.1-.02-.07.03,0,.01.01.03.01.05,0,.05.06.12.14.16.04.02.06.05.04.07-.02.02-.04.02-.14-.05-.12-.08-.13-.07-.04.03.04.05.04.05.04.09,0,.01.01.03.04.05.17.14.19.16.16.19-.02.01-.03,0-.09-.05-.19-.17-.24-.19-.14-.05.07.1.07.13,0,.08-.04-.03-.06-.03-.06,0,0,.02.03.05.11.13.11.11.13.14.11.16-.01,0-.13-.09-.14-.11-.02-.05-.06-.05-.09-.02-.03.03-.03.03.04.12.07.09.06.15-.01.09l-.03-.03v.03s-.03.05-.08,0c-.02-.02-.04-.03-.04-.02,0,.02.04.09.06.12.09.13.1.23,0,.12-.02-.02-.05-.04-.07-.05h-.03s0,.03,0,.03c0,.03,0,.04-.01.03-.04,0-.04,0-.06.04-.01.04-.01.04,0,.07.01.01.03.05.05.08.02.03.04.06.05.08.05.05-.01.07-.08.02-.06-.04-.08-.03-.05.04.03.05.03.08,0,.09-.02.02-.04,0-.06-.03,0-.01-.02-.03-.02-.03-.02,0,0,.06.04.14.03.06.04.08.03.09-.03.03-.07,0-.11-.09-.03-.07-.07-.07-.14,0l-.04.04.02.08s.04.11.06.16c.02.04.03.08.03.09-.01.02-.04,0-.05-.01,0-.01-.02-.04-.04-.06-.03-.03-.05-.1-.08-.18,0-.02-.02-.06-.03-.08l-.02-.04v.06s-.02.08-.04.1c-.02.04-.02.04,0,.11.02.09.02.12,0,.13-.02.02-.05.01-.05,0,0-.03-.03-.13-.04-.14,0,0-.02,0-.03.01-.01.01-.03.02-.04.02-.03,0-.03.02-.02.12.01.12,0,.16-.03.15-.02,0-.02-.01-.03-.08,0-.06,0-.08-.03-.1-.03-.02-.03-.02,0-.14,0-.03,0-.04,0-.03-.03,0-.05.05-.06.12,0,.08-.02.1-.06.08-.05-.02-.06.07-.04.21.01.07.01.07,0,.09-.04.04-.06,0-.06-.14,0-.03,0-.05-.02-.07-.02-.02-.02-.04-.02-.09,0-.07,0-.1-.04-.1-.02,0-.03.02-.04.1,0,.03-.02.09-.03.12-.01.05-.02.1-.02.18,0,.12-.02.17-.06.14-.01-.01-.02-.03-.01-.11,0-.09,0-.1-.02-.13-.03-.03-.05-.02-.05.03,0,.07-.09.22-.12.2-.02-.01-.01-.04.02-.11.05-.1.06-.18.03-.21-.03-.02-.03-.02,0-.07.02-.04.02-.06,0-.06-.02,0-.05.07-.05.12s-.01.07-.06.09c-.03.02-.1.15-.11.25-.02.1-.07.07-.06-.04,0-.08,0-.08-.01-.09-.03-.01-.03-.04,0-.09.02-.05.03-.07,0-.08-.03-.01-.05.03-.05.1,0,.09-.03.24-.04.26-.04.04-.06.02-.04-.05.01-.07.01-.08-.02-.08-.04,0-.04-.02,0-.21,0-.03-.02-.06-.05-.06-.02,0-.11.24-.14.36-.01.05-.02.05-.04.06h-.03s0-.09,0-.09h0s0-.09,0-.09h-.04s-.04,0-.04,0v-.05s.01-.07.05-.15c.06-.11.06-.12.04-.12-.01,0-.07.09-.11.16,0,.02-.03.04-.06.06-.04.03-.05.04-.06.1-.03.12-.1.14-.08.03,0-.02,0-.06,0-.09,0-.03,0-.06.01-.08l.02-.04-.03-.03s-.11.01-.19.2c-.02.05-.03.06-.05.05-.05,0-.02-.14.12-.42.01-.02.02-.04.01-.04-.02,0-.21.19-.26.25-.07.1-.1.06-.05-.06.04-.09.05-.09-.09.07-.11.13-.16.1-.05-.03.04-.05.05-.08.02-.09-.02,0-.02-.05,0-.08.03-.05.1-.2.09-.2-.01,0-.1.05-.13.07-.02.01-.04.03-.04.03s-.04.02-.08.04c-.08.05-.12.06-.15.06-.04,0-.03-.04.01-.05.08-.03.18-.11.21-.17.03-.05.01-.05-.04,0-.05.05-.11.06-.11.02,0-.02.08-.11.14-.16.06-.05.08-.07.07-.09,0-.02-.03,0-.09.04-.03.02-.04.03-.07.02-.02,0-.05,0-.08,0-.04,0-.06,0-.07,0-.03-.01-.02-.04.01-.04.13,0,.28-.12.23-.19,0-.01-.01-.03-.01-.05,0-.03-.04-.03-.12-.01-.04.01-.12.01-.14,0-.02-.02,0-.03.07-.04.26-.04.4-.09.36-.15,0-.02-.09,0-.11.03-.05.05-.11.05-.11.01,0-.03-.02-.04-.07-.05-.06,0-.1-.03-.09-.05,0,0,.02,0,.05,0,.17.02.22.01.36-.1.08-.06.02-.09-.07-.02-.05.04-.08.03-.07,0,.01-.03,0-.04-.1-.06-.08-.02-.02-.05.08-.04h.1s.05-.04.05-.04c.03-.03.07-.06.09-.08.07-.05.07-.06-.04-.06-.1,0-.13,0-.13-.02,0-.02.02-.02.1-.02.13,0,.13-.04,0-.04-.12,0-.07-.05.06-.05.09,0,.1-.02.04-.13-.06-.11-.1-.11-.06,0,.01.03.01.04,0,.05-.02.02-.02.02-.09-.04-.11-.1-.14-.1-.09,0,.05.11.01.15-.16.13-.1,0-.14,0-.14.02,0,.05-.05.06-.64.07-.33,0-.32,0-.34.04-.01.03-.03.02-.03-.02,0-.04.02-.06.07-.06.04,0,.06-.01.05-.03,0,0-.13-.03-.15-.03-.03,0-.07-.04-.06-.06,0,0,.05,0,.1,0,.05,0,.13.02.18.02.1,0,.15.01.19.05.03.03.04.03.31.02.15,0,.21-.02.17-.04-.03-.01-.02-.03.03-.04.06,0,.07-.02.04-.06-.03-.03-.05-.1-.05-.13,0-.04-.04-.13-.07-.16-.04-.04-.05-.05-.05-.01,0,.03-.03.05-.05.03-.04-.02-.05-.01-.05.06,0,.04,0,.08.01.09.01.03,0,.05-.04.05-.09.01-.03.05.09.05.07,0,.09,0,.09.02,0,.02-.02.03-.15.02-.06,0-.12,0-.13,0-.05,0-.06-.03-.03-.06.02-.02.03-.04.03-.05,0,0,.01-.02.03-.02.02,0,.03-.01.03-.02,0-.11-.01-.19-.04-.19-.01,0-.05-.02-.09-.06-.07-.07-.09-.08-.09-.02,0,.07-.06.06-.06-.01s-.02-.12-.08-.18c-.09-.09-.11-.07-.06.05.04.1.01.13-.05.05-.02-.02-.04-.04-.06-.04-.01,0-.05-.02-.08-.04-.05-.03-.05-.03-.17-.04-.07,0-.13,0-.14-.01-.01,0-.03,0-.05.02l-.03.03-.05-.02s-.05-.02-.07,0c-.01.01-.03.02-.03.02,0,0-.03,0-.05-.01-.02,0-.05-.02-.08-.03-.06-.03-.12-.03-.16,0-.04.03-.04.03,0,.16.03.09.03.12.03.16,0,.03,0,.08,0,.1,0,.08-.03.15-.08.2-.07.07-.16.14-.2.16-.02,0-.05.03-.07.05-.02.02-.06.04-.09.06-.03.01-.07.04-.1.06s-.06.04-.08.04c-.05.01-.21.09-.25.13-.02.01-.04.02-.05.02s-.05.02-.1.04c-.06.03-.1.04-.15.04-.04,0-.09.01-.11.02-.03,0-.08.02-.15.02-.12,0-.2.03-.22.08-.02.03-.13.1-.23.13-.05.01-.11.04-.14.05-.06.02-.38.02-.39,0-.01-.04-.04-.05-.09-.03-.13.04-.31.03-.36,0-.02-.02-.04-.02-.07-.02-.04,0-.05,0-.08-.03-.03-.04-.04-.04-.09-.04-.08,0-.08-.03,0-.11.04-.04.03-.06,0-.04-.13.05-.19.04-.14-.03.01-.02.02-.04.02-.05s0-.02.02-.02c.01,0,.02-.02.02-.03,0-.04.04-.09.21-.26.2-.2.2-.21.11-.16-.07.03-.25.03-.39,0-.04,0-.11-.02-.16-.03-.42-.05-.63-.12-.54-.17.01,0,.02-.02.02-.04,0-.04.03-.05.05-.02.02.02.05.01.04-.02,0-.01-.01-.02-.03-.03-.13-.02.18-.33.42-.41.18-.06.19-.07.35-.06.08,0,.16,0,.18,0,.03,0,.06,0,.09,0,.06.02.11.02.14,0,.03-.02.03-.02.06,0,.06.02.12,0,.1-.03-.02-.03-.15-.12-.26-.18-.07-.03-.12-.07-.16-.1-.08-.08-.13-.09-.16-.05-.03.04-.17,0-.23-.06-.04-.04-.07-.04-.07,0,0,.01,0,.03-.01.04-.02.02-.01.03.08.06.11.04.12.09.02.09-.1,0-.22-.08-.18-.11.04-.03,0-.05-.1-.05-.15,0-.09.1.08.14.06.02.03.08-.04.08-.03,0-.06-.01-.11-.04-.08-.05-.09-.05-.11-.02-.02.03-.06.03-.14,0-.05-.02-.06-.02-.08,0-.02.01-.05.01-.11.01-.05,0-.09,0-.11,0-.02,0-.12,0-.21,0-.05,0-.06.02-.01.03.03,0,.12.08.11.1-.01.02-.08,0-.13-.02-.07-.04-.13-.04-.15,0,0,.01-.02.02-.04.02s-.04,0-.05.02c-.03.03-.25.03-.3,0-.02-.01-.03,0-.06,0-.04.02-.03.03-.1-.02-.02-.02-.03,0,0,.03.04.05,0,.06-.1,0-.06-.03-.09-.03-.13-.03h-.06l.02.03s.01.06-.06.02c-.07-.03-.08-.03-.08.02,0,.02-.01.04-.03.06-.03.03-.03.04-.04.14,0,.1,0,.11-.03.13-.02.01-.02.02-.02.2,0,.19,0,.25-.03.15,0-.02-.01-.03-.02-.03-.02,0-.03.14-.02.19.01.04,0,.11-.02.12-.02,0-.04-.02-.04-.04,0-.01,0-.03,0-.04-.03-.04-.04.12-.01.19.01.04.01.05,0,.06-.02.02-.04.07-.06.15,0,.03-.02.06-.03.06-.01,0-.09.12-.11.16-.02.05-.13.17-.17.21-.06.05-.12.08-.13.08,0,0-.03.02-.05.04-.03.03-.04.04-.06.04-.01,0-.04,0-.07.02-.03.01-.06.02-.07.02s-.04,0-.05.02c-.03.02-.15.07-.21.08-.02,0-.07.02-.12.03-.1.03-.33.03-.45,0-.04,0-.11-.02-.15-.02-.05,0-.12-.02-.16-.03-.04-.01-.08-.03-.09-.03-.03,0-.08-.03-.08-.05,0,0,.01-.02.03-.04.04-.04.03-.06-.02-.04-.1.04-.21.02-.19-.04,0-.01.01-.05.02-.07v-.05s-.06,0-.06,0c-.12-.01-.13-.03-.04-.09.1-.08.15-.14.12-.16-.05-.04.06-.12.2-.14.04,0,.13-.06.19-.12.07-.07.21-.14.25-.13.03,0,.03,0,.07-.03.04-.04.16-.09.28-.12.07-.02.09-.04.04-.06h-.03s0-.16,0-.16c0-.08.01-.19.02-.24.02-.16.01-.28,0-.31-.01-.01-.03-.05-.04-.07-.03-.06-.03-.06-.05-.03-.02.03-.03.02-.06-.03-.02-.03-.03-.04-.07-.05-.05-.01-.06-.01-.07.04-.02.07-.06.06-.04,0,.03-.1-.08-.11-.12,0-.04.08-.09.05-.05-.03.01-.04,0-.05-.05-.05-.04,0-.05.02-.09.09-.05.09-.09.08-.05-.01.03-.07.03-.09-.02-.08-.05,0-.07.02-.09.06-.02.04-.04.06-.06.05-.02,0-.02-.04,0-.07.04-.07-.07-.09-.11-.02-.03.06-.08.05-.07-.01,0-.04-.02-.06-.07-.05-.02,0-.08.12-.08.17,0,.02,0,.04-.02.05,0,.01-.01.03-.01.03,0,.02-.05.08-.1.14-.02.02-.05.06-.06.09-.05.08-.13.14-.11.07.02-.06,0-.24-.02-.24-.03,0-.05.11-.03.16.02.03.01.07-.01.1l-.02.02-.02-.03s-.02-.04-.02-.05c0-.01-.01-.03-.02-.05-.01-.02-.03-.04-.03-.05-.02-.04-.03-.02-.03.06,0,.05,0,.1,0,.12,0,.03,0,.04.01.04.04,0-.14.1-.21.11-.01,0-.04.01-.06.02-.03.02-.04.02-.09.01-.04,0-.06,0-.08,0-.01,0-.04.02-.07.02-.05,0-.23.07-.28.09-.02.01-.06.02-.08.02-.05,0-.19.03-.25.06h-.16Z"/>
  </g>
  <g>
    <g>
      <path class="cls-4" d="m25.81,3.46s0-.04.03-.06c.02-.01.05-.01.07,0l1.52.62c.13.08.24.18.33.31.02.04.01.07,0,.11s-.06.06-.11.06l-.53.05-1.67.55.54.47s.04.03.04.05c0,.03-.01.05-.04.07l-.11.1c-.1.09-.14.21-.11.35v.33l1.2-.17c.16-.03.31-.09.43-.18.11-.05.21-.06.33-.04.48.1.86.35,1.15.76.02.06.01.13-.03.18-.05.06-.11.09-.18.09-1,0-1.99.07-2.98.2-.04.74-.22,1.42-.55,2.06-.33.54-.74,1-1.25,1.36s-.98.58-1.43.66c.76-.45,1.3-1.18,1.64-2.21.14-.49.25-1.05.32-1.66-.68.11-1.32.28-1.92.49-.06.08-.13.13-.21.15s-.16,0-.24-.04c-.48-.29-.85-.64-1.11-1.05l.53.08c.19.04.38.04.59,0l2.43-.48-.15-1.16c-.04-.12-.12-.18-.24-.2-.91.09-1.73.12-2.46.1,1.48-.19,2.91-.76,4.27-1.71l-.08-.25Z"/>
      <path class="cls-4" d="m31.86,7.24c.19.01.44,0,.75-.04l3.02-.47c.07-.02.13,0,.18.03l.44.34s.05.1.01.16-.08.09-.15.08c-.5-.05-1.03-.01-1.59.11l.19.29s.01.03,0,.04l-.16.15-.18,1.78,1.47-.11c.11-.06.21-.07.3-.03.28.11.44.32.5.62,0,.04-.02.07-.06.1-.04.03-.07.04-.11.03-1.21-.16-2.42-.1-3.64.18-.13.07-.23.15-.31.24-.04.05-.09.06-.15.04-.5-.16-.85-.42-1.05-.78.28.11.64.11,1.06.03l.46-.09.82-.11-.04-1.79-.09-.43c-.25.03-.48.09-.69.19-.19.08-.37.05-.54-.11l-.47-.45Z"/>
      <path class="cls-4" d="m38.71,6.85c.74.11,1.56.13,2.43.06l1.97-.11,2.07-.05.41-.09c.1-.04.2-.04.31.02.38.23.73.47,1.05.71.05.05.07.11.07.18s-.03.13-.08.18c-.11.11-.24.14-.4.11-1.94-.43-3.87-.41-5.79.05-.16.05-.3.13-.42.22-.06.06-.15.07-.25.04-.66-.32-1.12-.76-1.38-1.33Z"/>
      <path class="cls-4" d="m49.2,4.28c.21-.22.5-.33.86-.34s.67.11.91.36c.05.05.08.11.09.18s0,.13-.05.19c-.06.14-.11.29-.14.45-.11,1.09-.13,2.16-.07,3.22-.01.38-.18.66-.49.84-.19.06-.33.01-.43-.14l-.35-.48c-.06-.11-.08-.23-.05-.38.21-1.12.24-2.26.11-3.39-.02-.13-.07-.25-.17-.35l-.22-.15Zm3.42-.45c.21-.23.5-.35.88-.35.34.03.64.14.91.33.06.04.1.09.11.16s.01.14-.02.2l-.21.46c.02,1.24,0,2.41-.07,3.5-.04.84-.36,1.53-.98,2.07-.8.69-1.64,1.12-2.5,1.27.56-.29,1.07-.77,1.55-1.45.44-.62.67-1.29.7-2.04l-.03-3.67c-.06-.23-.17-.4-.34-.48Z"/>
      <path class="cls-4" d="m57.5,4.87c.26.1.6.11,1.02.04l2.62-.42c.13-.02.24-.08.33-.17l.33-.34c.05-.06.12-.08.2-.05.45.21.85.48,1.2.83.04.03.05.06.04.11s-.03.08-.07.11l-.33.28c-.38,1.07-.93,2.09-1.63,3.06.89.19,1.69.51,2.4.94.27.14.49.34.65.59s.26.53.28.83c0,.19-.07.35-.22.48s-.32.2-.52.18c-.29-.01-.5-.16-.63-.43-.29-.63-.68-1.2-1.18-1.71-.24-.24-.55-.44-.93-.6-1.19,1.42-2.59,2.32-4.19,2.68,1.11-.69,2.12-1.62,3.05-2.81.71-.97,1.17-2.08,1.4-3.31-.81.09-1.56.28-2.26.59-.13.08-.24.17-.32.29-.05.05-.1.06-.16.02-.49-.38-.84-.77-1.07-1.2Zm5.18-1.25c.14-.05.36-.05.65,0s.56.17.79.36c.11.09.18.22.22.37s.01.3-.07.43c-.05.1-.14.16-.27.19-.11.03-.22,0-.32-.06-.2-.15-.32-.34-.37-.59-.05-.21-.16-.38-.32-.51s-.26-.2-.32-.2Zm1.09-.45c.12-.06.32-.07.61-.03s.54.15.76.35c.21.19.28.41.2.68-.05.11-.13.18-.24.22s-.22.04-.32,0c-.16-.09-.26-.23-.29-.41-.08-.23-.2-.42-.37-.56s-.29-.22-.36-.23Z"/>
    </g>
    <g>
      <path class="cls-5" d="m25.81,3.46s0-.04.03-.06c.02-.01.05-.01.07,0l1.52.62c.13.08.24.18.33.31.02.04.01.07,0,.11s-.06.06-.11.06l-.53.05-1.67.55.54.47s.04.03.04.05c0,.03-.01.05-.04.07l-.11.1c-.1.09-.14.21-.11.35v.33l1.2-.17c.16-.03.31-.09.43-.18.11-.05.21-.06.33-.04.48.1.86.35,1.15.76.02.06.01.13-.03.18-.05.06-.11.09-.18.09-1,0-1.99.07-2.98.2-.04.74-.22,1.42-.55,2.06-.33.54-.74,1-1.25,1.36s-.98.58-1.43.66c.76-.45,1.3-1.18,1.64-2.21.14-.49.25-1.05.32-1.66-.68.11-1.32.28-1.92.49-.06.08-.13.13-.21.15s-.16,0-.24-.04c-.48-.29-.85-.64-1.11-1.05l.53.08c.19.04.38.04.59,0l2.43-.48-.15-1.16c-.04-.12-.12-.18-.24-.2-.91.09-1.73.12-2.46.1,1.48-.19,2.91-.76,4.27-1.71l-.08-.25Z"/>
      <path class="cls-5" d="m31.86,7.24c.19.01.44,0,.75-.04l3.02-.47c.07-.02.13,0,.18.03l.44.34s.05.1.01.16-.08.09-.15.08c-.5-.05-1.03-.01-1.59.11l.19.29s.01.03,0,.04l-.16.15-.18,1.78,1.47-.11c.11-.06.21-.07.3-.03.28.11.44.32.5.62,0,.04-.02.07-.06.1-.04.03-.07.04-.11.03-1.21-.16-2.42-.1-3.64.18-.13.07-.23.15-.31.24-.04.05-.09.06-.15.04-.5-.16-.85-.42-1.05-.78.28.11.64.11,1.06.03l.46-.09.82-.11-.04-1.79-.09-.43c-.25.03-.48.09-.69.19-.19.08-.37.05-.54-.11l-.47-.45Z"/>
      <path class="cls-5" d="m38.71,6.85c.74.11,1.56.13,2.43.06l1.97-.11,2.07-.05.41-.09c.1-.04.2-.04.31.02.38.23.73.47,1.05.71.05.05.07.11.07.18s-.03.13-.08.18c-.11.11-.24.14-.4.11-1.94-.43-3.87-.41-5.79.05-.16.05-.3.13-.42.22-.06.06-.15.07-.25.04-.66-.32-1.12-.76-1.38-1.33Z"/>
      <path class="cls-5" d="m49.2,4.28c.21-.22.5-.33.86-.34s.67.11.91.36c.05.05.08.11.09.18s0,.13-.05.19c-.06.14-.11.29-.14.45-.11,1.09-.13,2.16-.07,3.22-.01.38-.18.66-.49.84-.19.06-.33.01-.43-.14l-.35-.48c-.06-.11-.08-.23-.05-.38.21-1.12.24-2.26.11-3.39-.02-.13-.07-.25-.17-.35l-.22-.15Zm3.42-.45c.21-.23.5-.35.88-.35.34.03.64.14.91.33.06.04.1.09.11.16s.01.14-.02.2l-.21.46c.02,1.24,0,2.41-.07,3.5-.04.84-.36,1.53-.98,2.07-.8.69-1.64,1.12-2.5,1.27.56-.29,1.07-.77,1.55-1.45.44-.62.67-1.29.7-2.04l-.03-3.67c-.06-.23-.17-.4-.34-.48Z"/>
      <path class="cls-5" d="m57.5,4.87c.26.1.6.11,1.02.04l2.62-.42c.13-.02.24-.08.33-.17l.33-.34c.05-.06.12-.08.2-.05.45.21.85.48,1.2.83.04.03.05.06.04.11s-.03.08-.07.11l-.33.28c-.38,1.07-.93,2.09-1.63,3.06.89.19,1.69.51,2.4.94.27.14.49.34.65.59s.26.53.28.83c0,.19-.07.35-.22.48s-.32.2-.52.18c-.29-.01-.5-.16-.63-.43-.29-.63-.68-1.2-1.18-1.71-.24-.24-.55-.44-.93-.6-1.19,1.42-2.59,2.32-4.19,2.68,1.11-.69,2.12-1.62,3.05-2.81.71-.97,1.17-2.08,1.4-3.31-.81.09-1.56.28-2.26.59-.13.08-.24.17-.32.29-.05.05-.1.06-.16.02-.49-.38-.84-.77-1.07-1.2Zm5.18-1.25c.14-.05.36-.05.65,0s.56.17.79.36c.11.09.18.22.22.37s.01.3-.07.43c-.05.1-.14.16-.27.19-.11.03-.22,0-.32-.06-.2-.15-.32-.34-.37-.59-.05-.21-.16-.38-.32-.51s-.26-.2-.32-.2Zm1.09-.45c.12-.06.32-.07.61-.03s.54.15.76.35c.21.19.28.41.2.68-.05.11-.13.18-.24.22s-.22.04-.32,0c-.16-.09-.26-.23-.29-.41-.08-.23-.2-.42-.37-.56s-.29-.22-.36-.23Z"/>
    </g>
  </g>
  <g>
    <g>
      <path class="cls-4" d="m96.35,3.56c.28-.12.57-.2.89-.23.47-.05.89.09,1.24.41.04.04.06.07.06.11,0,.05-.02.09-.05.12l-.23.22c-.1.27-.14.58-.11.93l1.33-.18.21-.32c.06-.08.13-.1.23-.06.48.24.91.52,1.29.83.03.03.04.06.04.1,0,.04-.01.07-.04.09l-.27.26c-.27.97-.69,1.86-1.26,2.68-.52.74-1.15,1.35-1.89,1.84s-1.47.8-2.18.95c1.08-.7,2.05-1.63,2.91-2.78.54-.85.84-1.8.9-2.86-1.33.04-2.63.25-3.91.63l-.02,1.04v1.18c-.02.16-.12.27-.28.33-.16.06-.3.05-.42-.05l-.51-.39c-.05-.07-.06-.15-.03-.23.18-.77.16-1.53-.07-2.29-.06-.21-.18-.38-.37-.51l-.17-.11c.05-.08.15-.13.29-.13.09,0,.18.01.25.04l.76.25c.18.06.36.08.54.05l1.4-.15-.09-1.37c0-.12-.06-.21-.17-.25l-.27-.08s-.02-.02-.02-.04,0-.03.02-.04Z"/>
      <path class="cls-4" d="m102.8,6.82c.42.09.91.09,1.45,0,1.3-.33,2.61-.55,3.93-.67.18,0,.35-.07.52-.19l.16-.13c.12-.09.23-.1.35-.03.34.24.65.53.93.88.02.03.03.06.03.1s-.02.07-.04.1l-.24.15c-.24.7-.59,1.32-1.04,1.87s-.99,1-1.63,1.37c-1.05.63-2.11,1-3.18,1.1.93-.26,1.78-.79,2.57-1.59s1.37-1.77,1.75-2.92c-1.51.14-2.9.5-4.19,1.06-.13.08-.25.07-.37-.02-.45-.32-.78-.68-.99-1.08Zm.81-2.12c.45.04.96.02,1.53-.06.92-.15,1.87-.38,2.85-.69.13-.03.24-.02.33.02.28.13.53.28.76.44.09.07.11.16.07.26-.04.1-.12.15-.23.15-1.32.06-2.6.29-3.84.68-.11.02-.23.01-.36-.04-.48-.22-.85-.48-1.11-.76Z"/>
      <path class="cls-4" d="m112.72,5.18c.19-.2.46-.27.81-.21.42.06.76.26,1.01.61.05.07.07.15.05.24s-.08.16-.18.23c.04,1.11-.17,2.14-.62,3.09-.27.49-.62.91-1.05,1.24s-.84.56-1.21.66c.57-.6,1.01-1.37,1.31-2.31s.39-1.91.28-2.91c-.02-.19-.1-.36-.25-.51l-.15-.13Zm1.94-1.11c.22-.15.49-.21.81-.18.48.09.88.31,1.2.67.1.09.11.2.03.31-.08.11-.13.22-.15.35l-.2,3.41c1.44-.73,2.46-1.71,3.05-2.94-.12.79-.43,1.58-.91,2.37s-1.1,1.47-1.85,2.05c-.11.11-.16.23-.16.37,0,.01,0,.02-.03.04-.02.01-.04.01-.06,0-.52-.3-.96-.65-1.34-1.05-.03-.04-.03-.08,0-.13.15-.29.2-.59.17-.89l-.11-3.67c-.01-.22-.09-.4-.23-.55l-.2-.16Z"/>
    </g>
    <g>
      <path class="cls-5" d="m96.35,3.56c.28-.12.57-.2.89-.23.47-.05.89.09,1.24.41.04.04.06.07.06.11,0,.05-.02.09-.05.12l-.23.22c-.1.27-.14.58-.11.93l1.33-.18.21-.32c.06-.08.13-.1.23-.06.48.24.91.52,1.29.83.03.03.04.06.04.1,0,.04-.01.07-.04.09l-.27.26c-.27.97-.69,1.86-1.26,2.68-.52.74-1.15,1.35-1.89,1.84s-1.47.8-2.18.95c1.08-.7,2.05-1.63,2.91-2.78.54-.85.84-1.8.9-2.86-1.33.04-2.63.25-3.91.63l-.02,1.04v1.18c-.02.16-.12.27-.28.33-.16.06-.3.05-.42-.05l-.51-.39c-.05-.07-.06-.15-.03-.23.18-.77.16-1.53-.07-2.29-.06-.21-.18-.38-.37-.51l-.17-.11c.05-.08.15-.13.29-.13.09,0,.18.01.25.04l.76.25c.18.06.36.08.54.05l1.4-.15-.09-1.37c0-.12-.06-.21-.17-.25l-.27-.08s-.02-.02-.02-.04,0-.03.02-.04Z"/>
      <path class="cls-5" d="m102.8,6.82c.42.09.91.09,1.45,0,1.3-.33,2.61-.55,3.93-.67.18,0,.35-.07.52-.19l.16-.13c.12-.09.23-.1.35-.03.34.24.65.53.93.88.02.03.03.06.03.1s-.02.07-.04.1l-.24.15c-.24.7-.59,1.32-1.04,1.87s-.99,1-1.63,1.37c-1.05.63-2.11,1-3.18,1.1.93-.26,1.78-.79,2.57-1.59s1.37-1.77,1.75-2.92c-1.51.14-2.9.5-4.19,1.06-.13.08-.25.07-.37-.02-.45-.32-.78-.68-.99-1.08Zm.81-2.12c.45.04.96.02,1.53-.06.92-.15,1.87-.38,2.85-.69.13-.03.24-.02.33.02.28.13.53.28.76.44.09.07.11.16.07.26-.04.1-.12.15-.23.15-1.32.06-2.6.29-3.84.68-.11.02-.23.01-.36-.04-.48-.22-.85-.48-1.11-.76Z"/>
      <path class="cls-5" d="m112.72,5.18c.19-.2.46-.27.81-.21.42.06.76.26,1.01.61.05.07.07.15.05.24s-.08.16-.18.23c.04,1.11-.17,2.14-.62,3.09-.27.49-.62.91-1.05,1.24s-.84.56-1.21.66c.57-.6,1.01-1.37,1.31-2.31s.39-1.91.28-2.91c-.02-.19-.1-.36-.25-.51l-.15-.13Zm1.94-1.11c.22-.15.49-.21.81-.18.48.09.88.31,1.2.67.1.09.11.2.03.31-.08.11-.13.22-.15.35l-.2,3.41c1.44-.73,2.46-1.71,3.05-2.94-.12.79-.43,1.58-.91,2.37s-1.1,1.47-1.85,2.05c-.11.11-.16.23-.16.37,0,.01,0,.02-.03.04-.02.01-.04.01-.06,0-.52-.3-.96-.65-1.34-1.05-.03-.04-.03-.08,0-.13.15-.29.2-.59.17-.89l-.11-3.67c-.01-.22-.09-.4-.23-.55l-.2-.16Z"/>
    </g>
  </g>
</svg>